<?xml version="1.0" encoding="utf-8"?>
<!-- Generated by IcoMoon.io -->
<!DOCTYPE svg PUBLIC "-//W3C//DTD SVG 1.1//EN" "http://www.w3.org/Graphics/SVG/1.1/DTD/svg11.dtd">
<svg version="1.1" xmlns="http://www.w3.org/2000/svg" xmlns:xlink="http://www.w3.org/1999/xlink" width="64" height="64" viewBox="0 0 64 64">
<path d="m 32.00143,2.315803 c -16.809461,0 -30.4408109,13.627544 -30.4408109,30.439859 0,13.448711 8.7219719,24.858903 20.8170599,28.884573 1.521042,0.28157 2.080374,-0.660164 2.080374,-1.463966 0,-0.7258 -0.02854,-3.12389 -0.04185,-5.667522 -8.46894,1.841612 -10.255379,-3.591903 -10.255379,-3.591903 -1.384063,-3.518658 -3.379777,-4.453732 -3.379777,-4.453732 -2.761466,-1.889173 0.208324,-1.850173 0.208324,-1.850173 3.056351,0.214982 4.665859,3.137208 4.665859,3.137208 2.715806,4.653494 7.121024,3.307482 8.85895,2.530314 0.273008,-1.967177 1.061591,-3.310335 1.932931,-4.070381 -6.761457,-0.769557 -13.869164,-3.379775 -13.869164,-15.043948 0,-3.323652 1.189056,-6.038508 3.136257,-8.17025 -0.315814,-0.766703 -1.35838,-3.863008 0.293934,-8.056099 0,0 2.556948,-0.818071 8.372864,3.121037 2.427579,-0.674432 5.032089,-1.013076 7.619478,-1.024492 2.586437,0.01142 5.192849,0.35006 7.625185,1.024492 5.810208,-3.938157 8.3624,-3.121037 8.3624,-3.121037 1.65707,4.193091 0.615456,7.289396 0.299643,8.056099 1.951004,2.131742 3.132451,4.847549 3.132451,8.17025 0,11.691759 -7.121025,14.265829 -13.899601,15.019217 1.092029,0.944586 2.064203,2.796662 2.064203,5.637081 0,4.073233 -0.0352,7.351226 -0.0352,8.353839 0,0.810462 0.547917,1.759804 2.090837,1.460163 12.088426,-4.029477 20.798983,-15.435863 20.798983,-28.88077 0,-16.812315 -13.628497,-30.439859 -30.439861,-30.439859 z" fill="none" stroke="white" stroke-width="3"></path>
</svg>
