<?xml version="1.0" encoding="UTF-8" standalone="no"?>
<!-- Created with Inkscape (http://www.inkscape.org/) -->

<svg
   xmlns:dc="http://purl.org/dc/elements/1.1/"
   xmlns:cc="http://creativecommons.org/ns#"
   xmlns:rdf="http://www.w3.org/1999/02/22-rdf-syntax-ns#"
   xmlns:svg="http://www.w3.org/2000/svg"
   xmlns="http://www.w3.org/2000/svg"
   version="1.1"
   width="64"
   height="64"
   viewBox="0 0 64 64"
   id="svg2">
  <metadata
     id="metadata10">
    <rdf:RDF>
      <cc:Work
         rdf:about="">
        <dc:format>image/svg+xml</dc:format>
        <dc:type
           rdf:resource="http://purl.org/dc/dcmitype/StillImage" />
        <dc:title></dc:title>
      </cc:Work>
    </rdf:RDF>
  </metadata>
  <defs
     id="defs8" />
  <path
     d="m 22.009461,51.981079 -7.992432,0 0,-27.97351 7.992432,0 z M 18.013245,20.011353 c -2.20691,0 -3.996216,-1.789306 -3.996216,-3.996216 0,-2.20691 1.789306,-3.996216 3.996216,-3.996216 2.20691,0 3.996216,1.789306 3.996216,3.996216 0,2.20691 -1.789306,3.996216 -3.996216,3.996216 z m 31.969726,31.969726 -7.992432,0 0,-15.984863 C 41.990539,33.789306 40.201234,32 37.994324,32 c -2.206911,0 -3.996216,1.789306 -3.996216,3.996216 l 0,15.984863 -7.992432,0 0,-27.97351 7.992432,0 0,4.9623 c 1.648439,-2.264855 4.168053,-4.9623 6.993377,-4.9623 4.966297,0 8.991486,4.472764 8.991486,9.990539 z M 32,0.99905393 C 14.878758,0.99905393 0.99905393,14.878758 0.99905393,32 0.99905393,49.121242 14.878758,63.000946 32,63.000946 49.121242,63.000946 63.000946,49.121242 63.000946,32 63.000946,14.878758 49.121242,0.99905393 32,0.99905393 z"
     id="path4"
     style="fill:none;stroke:#000000;stroke-width:1.99810791" />
</svg>
