<?xml version="1.0" encoding="UTF-8" standalone="no"?>
<!-- Created with Inkscape (http://www.inkscape.org/) -->

<svg
   xmlns:dc="http://purl.org/dc/elements/1.1/"
   xmlns:cc="http://creativecommons.org/ns#"
   xmlns:rdf="http://www.w3.org/1999/02/22-rdf-syntax-ns#"
   xmlns:svg="http://www.w3.org/2000/svg"
   xmlns="http://www.w3.org/2000/svg"
   version="1.1"
   width="32"
   height="32"
   viewBox="0 0 32 32">
  <path
     d="M 16,0 C 7.289,0 0.2045,6.9615 0.0045,15.624 0.1895,8.066 5.9365,2 13,2 c 7.1795,0 13,6.268 13,14 0,1.657 1.343,3 3,3 1.657,0 3,-1.343 3,-3 C 32,7.1635 24.8365,0 16,0 z m 0,32 C 24.711,32 31.7955,25.0385 31.995,16.376 31.81,23.9345 26.063,30 19,30 11.8205,30 6,23.732 6,16 6,14.343 4.657,13 3,13 1.343,13 0,14.343 0,16 0,24.8365 7.1635,32 16,32 z"
     id="path4"
     style="fill:#ffff00" />
</svg>
