<?xml version="1.0" encoding="utf-8"?>
<!-- Generated by IcoMoon.io -->
<!DOCTYPE svg PUBLIC "-//W3C//DTD SVG 1.1//EN" "http://www.w3.org/Graphics/SVG/1.1/DTD/svg11.dtd">
<svg version="1.1" xmlns="http://www.w3.org/2000/svg" xmlns:xlink="http://www.w3.org/1999/xlink" width="64" height="64" viewBox="0 0 64 64">
<path d="m 8.1860445,8.184558 47.6279065,0 c 0.849861,0 1.674419,0.18307 2.432,0.526884 L 31.999998,39.331721 5.7540442,8.711442 C 6.5116252,8.367628 7.3361835,8.184558 8.1860445,8.184558 Z m -5.9534893,41.674419 0,-35.72093 c 0,-0.125024 0.006,-0.248558 0.0134,-0.372093 L 19.703068,34.132837 2.4379502,51.397953 C 2.3039972,50.900837 2.2325552,50.38586 2.2325552,49.858977 Z m 53.5813958,5.953488 -47.6279065,0 c -0.525396,0 -1.041861,-0.07144 -1.5389773,-0.205395 l 16.9406518,-16.940651 8.410791,9.814325 8.41079,-9.812837 16.940651,16.94214 z m 5.953489,-5.953488 c 0,0.525395 -0.07144,1.04186 -0.205395,1.538976 L 44.296928,34.132837 61.754045,13.765954 c 0.0074,0.123535 0.0134,0.247069 0.0134,0.372093 z" fill="none" stroke="#000000" stroke-width="3"></path>
</svg>
