<?xml version="1.0" encoding="UTF-8" standalone="no"?>
<!-- Created with Inkscape (http://www.inkscape.org/) -->

<svg
   xmlns:dc="http://purl.org/dc/elements/1.1/"
   xmlns:cc="http://creativecommons.org/ns#"
   xmlns:rdf="http://www.w3.org/1999/02/22-rdf-syntax-ns#"
   xmlns:svg="http://www.w3.org/2000/svg"
   xmlns="http://www.w3.org/2000/svg"
   version="1.1"
   width="64"
   height="64"
   viewBox="0 0 64 64"
   id="svg2">
  <metadata
     id="metadata10">
    <rdf:RDF>
      <cc:Work
         rdf:about="">
        <dc:format>image/svg+xml</dc:format>
        <dc:type
           rdf:resource="http://purl.org/dc/dcmitype/StillImage" />
        <dc:title></dc:title>
      </cc:Work>
    </rdf:RDF>
  </metadata>
  <defs
     id="defs8" />
  <path
     d="m 60.045626,36.050077 c 0.170466,-1.277472 0.268292,-2.576563 0.268292,-3.898254 0,-15.864236 -12.745283,-28.7273936 -28.464045,-28.7273936 -1.562287,0 -3.093581,0.1297126 -4.584195,0.3783283 C 24.59342,2.0359159 21.412669,1.006077 17.990746,1.006077 c -9.3853465,0 -16.984669,7.7149468 -16.984669,17.234077 0,3.463915 1.0043968,6.681178 2.7352137,9.383522 -0.233423,1.475971 -0.3525559,2.987319 -0.3525559,4.527164 0,15.867182 12.7385022,28.728375 28.4621072,28.728375 1.774403,0 3.502313,-0.174914 5.181796,-0.483473 2.609301,1.642043 5.682543,2.598181 8.976616,2.598181 9.383409,0 16.984669,-7.716913 16.984669,-17.235061 0,-3.598539 -1.084787,-6.94355 -2.947328,-9.708785 z M 34.510508,53.324444 c -9.044414,0.477578 -13.277022,-1.552619 -17.154168,-5.24353 -4.330433,-4.123287 -2.590899,-8.826347 0.937566,-9.065137 3.525559,-0.238789 5.642831,4.055482 7.524744,5.249426 1.879975,1.190015 9.030853,3.901203 12.808238,-0.480526 4.113475,-4.769882 -2.735214,-7.237369 -7.75526,-7.984199 -7.167345,-1.077006 -16.21757,-5.010637 -15.513427,-12.762925 0.704142,-7.747376 6.487415,-11.720313 12.572878,-12.280435 7.758167,-0.714402 12.808239,1.191979 16.802581,4.649997 4.619063,3.995538 2.119209,8.46276 -0.823276,8.822417 -2.930863,0.357692 -6.222999,-6.572101 -12.687169,-6.676264 -6.661756,-0.106129 -11.164592,7.033956 -2.940549,9.06317 8.228887,2.027251 17.040847,2.860555 20.21385,10.491974 3.175908,7.632404 -4.933846,15.738454 -13.986008,16.216032 z"
     id="path4"
     style="fill:none;stroke:#000000;stroke-width:2.0121541" />
</svg>
