<?xml version="1.0" encoding="UTF-8" standalone="no"?>
<!-- Created with Inkscape (http://www.inkscape.org/) -->

<svg
   xmlns:dc="http://purl.org/dc/elements/1.1/"
   xmlns:cc="http://creativecommons.org/ns#"
   xmlns:rdf="http://www.w3.org/1999/02/22-rdf-syntax-ns#"
   xmlns:svg="http://www.w3.org/2000/svg"
   xmlns="http://www.w3.org/2000/svg"
   version="1.1"
   width="64"
   height="64"
   viewBox="0 0 64 64"
   id="svg2">
  <metadata
     id="metadata10">
    <rdf:RDF>
      <cc:Work
         rdf:about="">
        <dc:format>image/svg+xml</dc:format>
        <dc:type
           rdf:resource="http://purl.org/dc/dcmitype/StillImage" />
        <dc:title></dc:title>
      </cc:Work>
    </rdf:RDF>
  </metadata>
  <defs
     id="defs8" />
  <path
     d="M 32,0.99905393 C 14.878758,0.99905393 0.99905393,14.878758 0.99905393,32 0.99905393,49.121242 14.878758,63.000946 32,63.000946 49.121242,63.000946 63.000946,49.121242 63.000946,32 63.000946,14.878758 49.121242,0.99905393 32,0.99905393 z M 47.408439,24.097665 c 0.0155,0.34101 0.02325,0.683959 0.02325,1.028844 0,10.505446 -7.996307,22.620035 -22.620035,22.620035 -4.489324,0 -8.668639,-1.316573 -12.187246,-3.571891 0.621956,0.07363 1.254569,0.111409 1.89687,0.111409 3.724957,0 7.1525,-1.271038 9.873802,-3.403322 -3.478888,-0.06394 -6.415259,-2.362853 -7.426665,-5.521075 0.485359,0.093 0.983311,0.14338 1.495796,0.14338 0.724647,0 1.427981,-0.09785 2.094502,-0.279009 -3.6368,-0.73046 -6.377476,-3.943901 -6.377476,-7.79577 0,-0.03391 0,-0.06685 9.68e-4,-0.09979 1.07147,0.595799 2.297946,0.953278 3.600954,0.993968 -2.133253,-1.426044 -3.537015,-3.858649 -3.537015,-6.617734 0,-1.457045 0.392357,-2.823023 1.076315,-3.997184 3.921619,4.80999 9.778861,7.974993 16.386906,8.306316 -0.135629,-0.582237 -0.205381,-1.188693 -0.205381,-1.811619 0,-4.390508 3.560265,-7.949804 7.949804,-7.949804 2.28632,0 4.352728,0.965873 5.80299,2.510108 1.81065,-0.356511 3.512796,-1.018188 5.048311,-1.928841 -0.593862,1.856182 -1.854244,3.414948 -3.495356,4.39826 1.608174,-0.191818 3.140782,-0.619051 4.565857,-1.251664 -1.065657,1.593643 -2.41323,2.994498 -3.967152,4.115376 z"
     id="path4"
     style="fill:none;stroke:#000000;stroke-width:1.99810791" />
</svg>
