<?xml version="1.0" encoding="UTF-8" standalone="no"?>
<!-- Created with Inkscape (http://www.inkscape.org/) -->

<svg
   xmlns:dc="http://purl.org/dc/elements/1.1/"
   xmlns:cc="http://creativecommons.org/ns#"
   xmlns:rdf="http://www.w3.org/1999/02/22-rdf-syntax-ns#"
   xmlns:svg="http://www.w3.org/2000/svg"
   xmlns="http://www.w3.org/2000/svg"
   xmlns:xlink="http://www.w3.org/1999/xlink"
   version="1.1"
   width="1500"
   height="1500"
   id="svg2">
  <defs
     id="defs4">
    <linearGradient
       id="linearGradient3958">
      <stop
         id="stop3960"
         style="stop-color:#ffffff;stop-opacity:1"
         offset="0" />
      <stop
         id="stop3962"
         style="stop-color:#ffffff;stop-opacity:0"
         offset="1" />
    </linearGradient>
    <linearGradient
       id="linearGradient3776">
      <stop
         id="stop3778"
         style="stop-color:#00003c;stop-opacity:1"
         offset="0" />
      <stop
         id="stop3780"
         style="stop-color:#000000;stop-opacity:0"
         offset="1" />
    </linearGradient>
    <radialGradient
       cx="123.8584"
       cy="-112.50124"
       r="9.2925777"
       fx="123.8584"
       fy="-112.50124"
       id="radialGradient3975"
       xlink:href="#linearGradient3958"
       gradientUnits="userSpaceOnUse"
       gradientTransform="matrix(1.327357,0.46921237,0.27603213,1.566075,-9.9524366,5.3142225)" />
    <radialGradient
       cx="123.8584"
       cy="-112.50124"
       r="9.2925777"
       fx="123.8584"
       fy="-112.50124"
       id="radialGradient3040"
       xlink:href="#linearGradient3958"
       gradientUnits="userSpaceOnUse"
       gradientTransform="matrix(-3.1252913,0.675011,-4.1544386,-0.46876347,668.49691,1047.4005)" />
    <radialGradient
       cx="123.8584"
       cy="-112.50124"
       r="9.2925777"
       fx="123.8584"
       fy="-112.50124"
       id="radialGradient3110"
       xlink:href="#linearGradient3958"
       gradientUnits="userSpaceOnUse"
       gradientTransform="matrix(-3.1252913,0.675011,-4.1544386,-0.46876347,668.49691,1047.4005)" />
    <radialGradient
       cx="123.8584"
       cy="-112.50124"
       r="9.2925777"
       fx="123.8584"
       fy="-112.50124"
       id="radialGradient3113"
       xlink:href="#linearGradient3958"
       gradientUnits="userSpaceOnUse"
       gradientTransform="matrix(-3.1252913,0.675011,-4.1544386,-0.46876347,668.49691,1047.4005)" />
  </defs>
  <path
     d="m 800.50763,750.00005 a 50.507631,50.507631 0 1 1 -101.01526,0 50.507631,50.507631 0 1 1 101.01526,0 z"
     id="sol"
     style="fill:#ffff00;fill-opacity:1;fill-rule:nonzero;stroke:none" />
  <path
     d="m 951.02035,750.00004 a 201.02036,201.02036 0 1 1 -402.04072,0 201.02036,201.02036 0 1 1 402.04072,0 z"
     id="path3789"
     style="fill:none;stroke:#ffffff;stroke-width:0.1;stroke-opacity:1" />
  <path
     d="m 900.52842,750.00004 a 150.52843,150.52843 0 1 1 -301.05686,0 150.52843,150.52843 0 1 1 301.05686,0 z"
     id="path3791"
     style="fill:none;stroke:#ffffff;stroke-width:0.09999999;stroke-opacity:1" />
  <path
     d="m 1013.6186,750.00003 a 263.61858,263.61858 0 1 1 -527.23715,0 263.61858,263.61858 0 1 1 527.23715,0 z"
     id="path3793"
     style="fill:none;stroke:#ffffff;stroke-width:0.1;stroke-opacity:1" />
  <path
     d="m 1092.3909,750.00004 a 342.39088,342.39088 0 1 1 -684.78176,0 342.39088,342.39088 0 1 1 684.78176,0 z"
     id="path3795"
     style="fill:none;stroke:#ffffff;stroke-width:0.10000001;stroke-opacity:1" />
  <path
     d="m 1180.2522,750.00004 a 430.25228,430.25228 0 1 1 -860.50452,0 430.25228,430.25228 0 1 1 860.50452,0 z"
     id="path3797"
     style="fill:none;stroke:#ffffff;stroke-width:0.1;stroke-opacity:1" />
  <path
     d="m 750.375,1162.6562 c -3.62419,-0.075 -7.26214,1.1269 -10.12865,3.3458 -2.86651,2.2189 -4.94167,5.4395 -5.7776,8.9668 -5.67335,1.379 -7.54109,3.7066 -0.125,6.9374 0.86296,4.1893 3.48354,7.9875 7.09375,10.2813 4.31153,2.7215 9.95614,3.2041 14.66707,1.2539 4.71093,-1.9502 8.36283,-6.2812 9.48918,-11.2539 6.05362,-2.3294 5.00879,-5.8881 -0.0312,-7.2187 -0.94632,-4.0186 -3.51483,-7.6306 -7,-9.8438 -2.43981,-1.5407 -5.30265,-2.404 -8.1875,-2.4688 z"
     id="path3919"
     style="fill:#cbc490;fill-opacity:1;stroke:none" />
  <path
     d="m 1287.3018,750.00007 a 537.30184,537.30184 0 1 1 -1074.60368,0 537.30184,537.30184 0 1 1 1074.60368,0 z"
     id="path3799"
     style="fill:none;stroke:#ffffff;stroke-width:0.10000002;stroke-opacity:1" />
  <path
     d="m 1387.282,750.00004 a 637.28206,637.28206 0 1 1 -1274.56412,0 637.28206,637.28206 0 1 1 1274.56412,0 z"
     id="path3801"
     style="fill:none;stroke:#ffffff;stroke-width:0.10000004;stroke-opacity:1" />
  <path
     d="m 1490.292,750.00002 a 740.29202,740.29202 0 1 1 -1480.5840364,0 740.29202,740.29202 0 1 1 1480.5840364,0 z"
     id="path3803"
     style="fill:none;stroke:#ffffff;stroke-width:0.1;stroke-opacity:1" />
  <path
     d="m 850.04176,750.00005 a 100.04176,100.04176 0 1 1 -200.08353,0 100.04176,100.04176 0 1 1 200.08353,0 z"
     id="path3805"
     style="fill:none;stroke:#ffffff;stroke-width:0.1;stroke-opacity:1" />
  <path
     d="m 746.25601,856.41728 a 6.9990996,6.9990996 0 1 1 7.48799,-11.82707 6.9990996,6.9990996 0 0 1 -7.48799,11.82707 z"
     id="mercurio"
     style="fill:#674c41;fill-opacity:1;stroke:none" />
  <path
     d="m 743.48668,910.64336 a 12.176131,12.176131 0 1 1 13.02664,-20.57521 12.176131,12.176131 0 0 1 -13.02664,20.57521 z"
     id="venus"
     style="fill:#6a2213;fill-opacity:1;stroke:none" />
  <path
     d="m 743.48668,962.28378 a 12.176131,12.176131 0 1 1 13.02664,-20.57521 12.176131,12.176131 0 0 1 -13.02664,20.57521 z"
     id="terra"
     style="fill:#0044aa;fill-opacity:1;stroke:none" />
  <path
     d="m 746.82293,1017.8245 a 5.9392846,5.9392846 0 0 1 6.35414,-10.0362 5.9392846,5.9392846 0 0 1 -6.35414,10.0362 z"
     id="marte"
     style="fill:#88552c;fill-opacity:1;stroke:none" />
  <path
     d="m 736.50248,1112.951 a 25.225009,25.225009 0 0 1 26.98697,-42.6252 25.225009,25.225009 0 1 1 -26.98697,42.6252 z"
     id="jupiter"
     style="fill:#e1aa61;fill-opacity:1;stroke:none" />
  <path
     d="m 744.27413,1297.1114 a 10.704053,10.704053 0 0 1 11.45173,-18.0877 10.704053,10.704053 0 0 1 -11.45173,18.0877 z"
     id="urano"
     style="fill:#4ab3e3;fill-opacity:1;stroke:none" />
  <path
     d="m 744.89897,1394.0355 a 9.543329,9.543329 0 1 1 10.20994,-16.1263 9.543329,9.543329 0 0 1 -10.20994,16.1263 z"
     id="netuno"
     style="fill:#3e67f0;fill-opacity:1;stroke:none" />
  <path
     d="m 748.11891,1492.8043 a 3.5165654,3.5165654 0 1 1 3.76218,-5.9423 3.5165654,3.5165654 0 0 1 -3.76218,5.9423 z"
     id="plutao"
     style="fill:#cccccc;fill-opacity:1;stroke:none" />
  <metadata
     id="metadata3908">
    <rdf:RDF>
      <cc:Work
         rdf:about="">
        <dc:title></dc:title>
      </cc:Work>
    </rdf:RDF>
  </metadata>
</svg>
