<?xml version="1.0" encoding="UTF-8" standalone="no"?>
<!-- Created with Inkscape (http://www.inkscape.org/) -->

<svg
   xmlns:dc="http://purl.org/dc/elements/1.1/"
   xmlns:cc="http://creativecommons.org/ns#"
   xmlns:rdf="http://www.w3.org/1999/02/22-rdf-syntax-ns#"
   xmlns:svg="http://www.w3.org/2000/svg"
   xmlns="http://www.w3.org/2000/svg"
   xmlns:xlink="http://www.w3.org/1999/xlink"
   xmlns:sodipodi="http://sodipodi.sourceforge.net/DTD/sodipodi-0.dtd"
   xmlns:inkscape="http://www.inkscape.org/namespaces/inkscape"
   version="1.1"
   width="1500"
   height="1500"
   id="svg2"
   inkscape:version="0.48.5 r10040"
   sodipodi:docname="background.svg">
  <sodipodi:namedview
     pagecolor="#ffffff"
     bordercolor="#666666"
     borderopacity="1"
     objecttolerance="10"
     gridtolerance="10"
     guidetolerance="10"
     inkscape:pageopacity="0"
     inkscape:pageshadow="2"
     inkscape:window-width="1920"
     inkscape:window-height="1056"
     id="namedview35"
     showgrid="false"
     showguides="true"
     inkscape:guide-bbox="true"
     inkscape:zoom="0.89001173"
     inkscape:cx="835.80549"
     inkscape:cy="638.00949"
     inkscape:window-x="0"
     inkscape:window-y="24"
     inkscape:window-maximized="1"
     inkscape:current-layer="svg2">
    <sodipodi:guide
       orientation="0,1"
       position="750,750"
       id="guide3012" />
    <sodipodi:guide
       orientation="1,0"
       position="750,750"
       id="guide3014" />
  </sodipodi:namedview>
  <defs
     id="defs4">
    <linearGradient
       id="linearGradient3958">
      <stop
         id="stop3960"
         style="stop-color:#ffffff;stop-opacity:1"
         offset="0" />
      <stop
         id="stop3962"
         style="stop-color:#ffffff;stop-opacity:0"
         offset="1" />
    </linearGradient>
    <linearGradient
       id="linearGradient3776">
      <stop
         id="stop3778"
         style="stop-color:#00003c;stop-opacity:1"
         offset="0" />
      <stop
         id="stop3780"
         style="stop-color:#000000;stop-opacity:0"
         offset="1" />
    </linearGradient>
    <radialGradient
       cx="123.8584"
       cy="-112.50124"
       r="9.2925777"
       fx="123.8584"
       fy="-112.50124"
       id="radialGradient3975"
       xlink:href="#linearGradient3958"
       gradientUnits="userSpaceOnUse"
       gradientTransform="matrix(1.327357,0.46921237,0.27603213,1.566075,-9.9524366,5.3142225)" />
  </defs>
  <metadata
     id="metadata7">
    <rdf:RDF>
      <cc:Work
         rdf:about="">
        <dc:format>image/svg+xml</dc:format>
        <dc:type
           rdf:resource="http://purl.org/dc/dcmitype/StillImage" />
        <dc:title />
      </cc:Work>
    </rdf:RDF>
  </metadata>
  <g
     transform="translate(100.3545,659.64556)"
     id="layer2">
    <path
       d="m 697.00526,215.93388 a 89.90358,89.90358 0 1 1 -179.80716,0 89.90358,89.90358 0 1 1 179.80716,0 z"
       transform="matrix(0.56179777,0,0,0.56179777,308.57713,-30.956682)"
       id="sol"
       style="fill:#ffff00;fill-opacity:1;fill-rule:nonzero;stroke:none" />
    <path
       d="m 697.00526,215.93388 a 89.90358,89.90358 0 1 1 -179.80716,0 89.90358,89.90358 0 1 1 179.80716,0 z"
       transform="matrix(2.235955,0,0,2.235955,-707.80655,-392.46396)"
       id="path3789"
       style="fill:none;stroke:#ffffff;stroke-width:0.04472362;stroke-opacity:1" />
    <path
       d="m 697.00526,215.93388 a 89.90358,89.90358 0 1 1 -179.80716,0 89.90358,89.90358 0 1 1 179.80716,0 z"
       transform="matrix(1.6743319,0,0,1.6743319,-366.84422,-271.1905)"
       id="path3791"
       style="fill:none;stroke:#ffffff;stroke-width:0.05972531;stroke-opacity:1" />
    <path
       d="m 697.00526,215.93388 a 89.90358,89.90358 0 1 1 -179.80716,0 89.90358,89.90358 0 1 1 179.80716,0 z"
       transform="matrix(2.9322365,0,0,2.9322365,-1130.5202,-542.81473)"
       id="path3793"
       style="fill:none;stroke:#ffffff;stroke-width:0.03410366;stroke-opacity:1" />
    <path
       d="m 697.00526,215.93388 a 89.90358,89.90358 0 1 1 -179.80716,0 89.90358,89.90358 0 1 1 179.80716,0 z"
       transform="matrix(3.808423,0,0,3.808423,-1662.4545,-732.01308)"
       id="path3795"
       style="fill:none;stroke:#ffffff;stroke-width:0.02625759;stroke-opacity:1" />
    <path
       d="m 697.00526,215.93388 a 89.90358,89.90358 0 1 1 -179.80716,0 89.90358,89.90358 0 1 1 179.80716,0 z"
       transform="matrix(4.785708,0,0,4.785708,-2255.7659,-943.04202)"
       id="path3797"
       style="fill:none;stroke:#ffffff;stroke-width:0.02089555;stroke-opacity:1" />
    <path
       d="m 697.00526,215.93388 a 89.90358,89.90358 0 1 1 -179.80716,0 89.90358,89.90358 0 1 1 179.80716,0 z"
       transform="matrix(5.976423,0,0,5.976423,-2978.651,-1200.1577)"
       id="path3799"
       style="fill:none;stroke:#ffffff;stroke-width:0.01673242;stroke-opacity:1" />
    <path
       d="m 697.00526,215.93388 a 89.90358,89.90358 0 1 1 -179.80716,0 89.90358,89.90358 0 1 1 179.80716,0 z"
       transform="matrix(7.0885059,0,0,7.0885059,-3653.7984,-1440.2941)"
       id="path3801"
       style="fill:none;stroke:#ffffff;stroke-width:0.01410735;stroke-opacity:1" />
    <path
       d="m 697.00526,215.93388 a 89.90358,89.90358 0 1 1 -179.80716,0 89.90358,89.90358 0 1 1 179.80716,0 z"
       transform="matrix(8.2342883,0,0,8.2342883,-4349.4048,-1687.7074)"
       id="path3803"
       style="fill:none;stroke:#ffffff;stroke-width:0.01214434;stroke-opacity:1" />
    <path
       d="m 697.00526,215.93388 a 89.90358,89.90358 0 1 1 -179.80716,0 89.90358,89.90358 0 1 1 179.80716,0 z"
       transform="matrix(1.1127673,0,0,1.1127673,-25.917402,-149.92967)"
       id="path3805"
       style="fill:none;stroke:#ffffff;stroke-width:0.08986605;stroke-opacity:1" />
  </g>
  <g
     transform="translate(100.3545,659.64556)"
     id="layer3">
    <path
       d="m 125,-109.28571 a 7.5,7.5 0 1 1 -15,0 7.5,7.5 0 1 1 15,0 z"
       transform="matrix(-0.49919939,0.78847103,-0.78847103,-0.49919939,622.13281,43.657477)"
       id="mercurio"
       style="fill:#674c41;fill-opacity:1;stroke:none" />
    <path
       d="m 125,-109.28571 a 7.5,7.5 0 1 1 -15,0 7.5,7.5 0 1 1 15,0 z"
       transform="matrix(-0.86844287,1.3716805,-1.3716805,-0.86844287,601.78246,-15.370658)"
       id="venus"
       style="fill:#6a2213;fill-opacity:1;stroke:none" />
    <path
       d="m 125,-109.28571 a 7.5,7.5 0 1 1 -15,0 7.5,7.5 0 1 1 15,0 z"
       transform="matrix(-0.86844287,1.3716805,-1.3716805,-0.86844287,601.78246,36.269764)"
       id="terra"
       style="fill:#0044aa;fill-opacity:1;stroke:none" />
    <path
       d="m 125,-109.28571 a 7.5,7.5 0 1 1 -15,0 7.5,7.5 0 1 1 15,0 z"
       transform="matrix(-0.42360898,0.66907817,-0.66907817,-0.42360898,626.29887,228.24975)"
       id="marte"
       style="fill:#88552c;fill-opacity:1;stroke:none" />
    <path
       d="m 125,-109.28571 a 7.5,7.5 0 1 1 -15,0 7.5,7.5 0 1 1 15,0 z"
       transform="matrix(-1.7991315,2.8416764,-2.8416764,-1.7991315,550.48882,-98.523515)"
       id="jupiter"
       style="fill:#e1aa61;fill-opacity:1;stroke:none" />
    <path
       d="m 125,-109.28571 a 7.5,7.5 0 1 1 -15,0 7.5,7.5 0 1 1 15,0 z"
       transform="matrix(-0.76344867,1.2058452,-1.2058452,-0.76344867,607.56907,403.30109)"
       id="urano"
       style="fill:#4ab3e3;fill-opacity:1;stroke:none" />
    <path
       d="m 125,-109.28571 a 7.5,7.5 0 1 1 -15,0 7.5,7.5 0 1 1 15,0 z"
       transform="matrix(-0.68066259,1.0750869,-1.0750869,-0.68066259,612.13172,525.61729)"
       id="netuno"
       style="fill:#3e67f0;fill-opacity:1;stroke:none" />
    <path
       d="m 125,-109.28571 a 7.5,7.5 0 1 1 -15,0 7.5,7.5 0 1 1 15,0 z"
       transform="matrix(-0.25081181,0.39615001,-0.39615001,-0.25081181,635.82235,756.22982)"
       id="plutao"
       style="fill:#cccccc;fill-opacity:1;stroke:none" />
    <g
       transform="translate(-406.11301,305.46117)"
       id="saturno">
      <path
         d="m 125,-109.28571 a 7.5,7.5 0 1 1 -15,0 7.5,7.5 0 1 1 15,0 z"
         transform="matrix(-1.1416981,1.8032792,-1.8032792,-1.1416981,992.24957,-123.10618)"
         id="path3919"
         style="fill:#cbc490;fill-opacity:1;stroke:none" />
      <path
         d="m 125,-109.28571 c -6.45735,18.809881 -24.14096,-5.54515 -7.5,-7.5 4.14214,0 7.5,3.35786 7.5,7.5 z"
         transform="matrix(-1.5109234,0.65516748,-2.3864599,-0.41480181,971.90022,91.018719)"
         id="path3180"
         style="fill:none;stroke:url(#radialGradient3975);stroke-width:3.58515477;stroke-opacity:1" />
    </g>
  </g>
</svg>
