<?xml version="1.0" encoding="UTF-8" standalone="no"?>
<!-- Created with Inkscape (http://www.inkscape.org/) -->

<svg
   xmlns:dc="http://purl.org/dc/elements/1.1/"
   xmlns:cc="http://creativecommons.org/ns#"
   xmlns:rdf="http://www.w3.org/1999/02/22-rdf-syntax-ns#"
   xmlns:svg="http://www.w3.org/2000/svg"
   xmlns="http://www.w3.org/2000/svg"
   xmlns:sodipodi="http://sodipodi.sourceforge.net/DTD/sodipodi-0.dtd"
   xmlns:inkscape="http://www.inkscape.org/namespaces/inkscape"
   width="16"
   height="15.999999"
   id="svg2"
   version="1.1"
   inkscape:version="0.48.5 r10040"
   sodipodi:docname="favicon.svg"
   inkscape:export-filename="/var/www/novo/favicon.png"
   inkscape:export-xdpi="90"
   inkscape:export-ydpi="90">
  <defs
     id="defs4" />
  <sodipodi:namedview
     id="base"
     pagecolor="#ffffff"
     bordercolor="#666666"
     borderopacity="1.0"
     inkscape:pageopacity="0.0"
     inkscape:pageshadow="2"
     inkscape:zoom="15.839192"
     inkscape:cx="23.952431"
     inkscape:cy="-4.676754"
     inkscape:document-units="px"
     inkscape:current-layer="layer1"
     showgrid="false"
     fit-margin-top="0"
     fit-margin-left="0"
     fit-margin-right="0"
     fit-margin-bottom="0"
     inkscape:window-width="1920"
     inkscape:window-height="1056"
     inkscape:window-x="0"
     inkscape:window-y="24"
     inkscape:window-maximized="1" />
  <metadata
     id="metadata7">
    <rdf:RDF>
      <cc:Work
         rdf:about="">
        <dc:format>image/svg+xml</dc:format>
        <dc:type
           rdf:resource="http://purl.org/dc/dcmitype/StillImage" />
        <dc:title />
      </cc:Work>
    </rdf:RDF>
  </metadata>
  <g
     inkscape:label="Camada 1"
     inkscape:groupmode="layer"
     id="layer1"
     transform="translate(-113.62857,-379.21933)">
    <g
       style="font-size:22.22222137px;font-style:normal;font-weight:normal;text-align:start;line-height:125%;letter-spacing:0px;word-spacing:0px;text-anchor:start;fill:#ffffff;fill-opacity:1;stroke:#000000;stroke-width:0.5;stroke-opacity:1;font-family:Sans"
       id="text2985"
       transform="matrix(0.96969697,0,0,0.96969697,3.6857142,11.733918)">
      <path
         d="m 129.62857,381.90822 0,4.68889 c -2e-5,0.74075 -0.25928,1.37038 -0.77778,1.88889 -0.51853,0.51852 -1.14816,0.77778 -1.88889,0.77777 l -2.44444,0 5.02222,5.95556 -2.37778,0 -5,-5.95556 -5.86666,0 c -0.13334,10e-6 -0.42223,-0.0296 -0.86667,-0.0889 l 0,6.04444 -1.8,0 0,-15.97778 13.33333,0 c 0.74073,2e-5 1.37036,0.25928 1.88889,0.77778 0.5185,0.51853 0.77776,1.14816 0.77778,1.88889 m -13.33333,5.53333 10.66666,0 c 0.23703,10e-6 0.43703,-0.0815 0.6,-0.24444 0.16295,-0.16296 0.24443,-0.36296 0.24445,-0.6 l 0,-4.68889 c -2e-5,-0.23702 -0.0815,-0.43702 -0.24445,-0.6 -0.16297,-0.17776 -0.36297,-0.26665 -0.6,-0.26667 l -10.66666,0 c -0.23704,2e-5 -0.44445,0.0889 -0.62222,0.26667 -0.16297,0.16298 -0.24445,0.36298 -0.24445,0.6 l 0,4.68889 c 0,0.23704 0.0815,0.43704 0.24445,0.6 0.17777,0.16297 0.38518,0.24445 0.62222,0.24444"
         style="font-variant:normal;font-stretch:normal;fill:#ffffff;stroke:#000000;stroke-width:0.5;stroke-opacity:1;font-family:Orbitron;-inkscape-font-specification:Orbitron"
         id="path2990"
         inkscape:connector-curvature="0" />
      <path
         d="m 131.96676,379.24155 13.33334,0 c 0.74072,2e-5 1.37035,0.25928 1.88889,0.77778 0.5185,0.51853 0.77776,1.14816 0.77777,1.88889 l 0,4.68889 c -1e-5,0.74075 -0.25927,1.37038 -0.77777,1.88889 -0.51854,0.51852 -1.14817,0.77778 -1.88889,0.77777 l -10.66667,0 c -0.13334,10e-6 -0.42222,-0.0296 -0.86667,-0.0889 l 0,6.04444 -1.8,0 0,-15.97778 m 14.2,7.35556 0,-4.68889 c -1e-5,-0.23702 -0.0889,-0.43702 -0.26666,-0.6 -0.16298,-0.17776 -0.36298,-0.26665 -0.6,-0.26667 l -10.66667,0 c -0.23704,2e-5 -0.44445,0.0889 -0.62222,0.26667 -0.16297,0.16298 -0.24445,0.36298 -0.24445,0.6 l 0,4.68889 c 0,0.23704 0.0815,0.43704 0.24445,0.6 0.17777,0.16297 0.38518,0.24445 0.62222,0.24444 l 10.66667,0 c 0.23702,10e-6 0.43702,-0.0815 0.6,-0.24444 0.17776,-0.16296 0.26665,-0.36296 0.26666,-0.6"
         style="font-variant:normal;font-stretch:normal;fill:#ffffff;stroke:#000000;stroke-width:0.5;stroke-opacity:1;font-family:Orbitron;-inkscape-font-specification:Orbitron"
         id="path2992"
         inkscape:connector-curvature="0" />
      <path
         d="m 165.50044,381.01933 -13.28888,0 c -0.23704,10e-6 -0.44445,0.0889 -0.62223,0.26667 -0.16296,0.16297 -0.24444,0.36297 -0.24444,0.6 l 0,10.66666 c 0,0.23704 0.0815,0.44445 0.24444,0.62223 0.17778,0.16296 0.38519,0.24444 0.62223,0.24444 l 13.28888,0 0,1.8 -13.28888,0 c -0.74075,0 -1.37038,-0.25926 -1.88889,-0.77778 -0.51852,-0.51852 -0.77778,-1.14814 -0.77778,-1.88889 l 0,-10.66666 c 0,-0.74073 0.25926,-1.37036 0.77778,-1.88889 0.51851,-0.5185 1.14814,-0.77776 1.88889,-0.77778 l 13.28888,0 0,1.8"
         style="font-variant:normal;font-stretch:normal;fill:#ffffff;stroke:#000000;stroke-width:0.5;stroke-opacity:1;font-family:Orbitron;-inkscape-font-specification:Orbitron"
         id="path2994"
         inkscape:connector-curvature="0" />
    </g>
  </g>
</svg>
