<?xml version="1.0" encoding="UTF-8" standalone="no"?>
<!-- Created with Inkscape (http://www.inkscape.org/) -->

<svg
   xmlns:dc="http://purl.org/dc/elements/1.1/"
   xmlns:cc="http://creativecommons.org/ns#"
   xmlns:rdf="http://www.w3.org/1999/02/22-rdf-syntax-ns#"
   xmlns:svg="http://www.w3.org/2000/svg"
   xmlns="http://www.w3.org/2000/svg"
   xmlns:xlink="http://www.w3.org/1999/xlink"
   xmlns:sodipodi="http://sodipodi.sourceforge.net/DTD/sodipodi-0.dtd"
   xmlns:inkscape="http://www.inkscape.org/namespaces/inkscape"
   width="1480.709"
   height="1480.709"
   id="svg2"
   version="1.1"
   inkscape:version="0.48.5 r10040"
   sodipodi:docname="layout.svg">
  <defs
     id="defs4">
    <linearGradient
       inkscape:collect="always"
       id="linearGradient3958">
      <stop
         style="stop-color:#ffffff;stop-opacity:1;"
         offset="0"
         id="stop3960" />
      <stop
         style="stop-color:#ffffff;stop-opacity:0;"
         offset="1"
         id="stop3962" />
    </linearGradient>
    <linearGradient
       inkscape:collect="always"
       id="linearGradient3797">
      <stop
         style="stop-color:#ffffff;stop-opacity:1;"
         offset="0"
         id="stop3799" />
      <stop
         style="stop-color:#ffffff;stop-opacity:0;"
         offset="1"
         id="stop3801" />
    </linearGradient>
    <linearGradient
       id="linearGradient3776">
      <stop
         style="stop-color:#00003c;stop-opacity:1;"
         offset="0"
         id="stop3778" />
      <stop
         style="stop-color:#000000;stop-opacity:0;"
         offset="1"
         id="stop3780" />
    </linearGradient>
    <radialGradient
       inkscape:collect="always"
       xlink:href="#linearGradient3797"
       id="radialGradient3803"
       cx="640"
       cy="315.14001"
       fx="640"
       fy="315.14001"
       r="150"
       gradientTransform="matrix(1,0,0,0.01333333,0,212.93815)"
       gradientUnits="userSpaceOnUse" />
    <radialGradient
       inkscape:collect="always"
       xlink:href="#linearGradient3776"
       id="radialGradient3828"
       cx="639.99652"
       cy="855.91766"
       fx="639.99652"
       fy="855.91766"
       r="640"
       gradientTransform="matrix(18.365432,-0.0194758,3.8814641e-4,1.1568035,-11114.148,-356.10014)"
       gradientUnits="userSpaceOnUse" />
    <radialGradient
       inkscape:collect="always"
       xlink:href="#linearGradient3958"
       id="radialGradient3975"
       gradientUnits="userSpaceOnUse"
       gradientTransform="matrix(1.327357,0.46921237,0.27603213,1.566075,-9.9524366,5.3142225)"
       cx="123.8584"
       cy="-112.50124"
       fx="123.8584"
       fy="-112.50124"
       r="9.2925777" />
  </defs>
  <sodipodi:namedview
     id="base"
     pagecolor="#000000"
     bordercolor="#666666"
     borderopacity="1.0"
     inkscape:pageopacity="0"
     inkscape:pageshadow="2"
     inkscape:zoom="0.7"
     inkscape:cx="922.79819"
     inkscape:cy="715.16422"
     inkscape:document-units="px"
     inkscape:current-layer="layer2"
     showgrid="false"
     inkscape:window-width="1920"
     inkscape:window-height="1056"
     inkscape:window-x="0"
     inkscape:window-y="24"
     inkscape:window-maximized="1"
     fit-margin-top="0"
     fit-margin-left="0"
     fit-margin-right="0"
     fit-margin-bottom="0"
     showguides="true"
     inkscape:guide-bbox="true">
    <sodipodi:guide
       orientation="1,0"
       position="1480.7031,1480.1674"
       id="guide3977" />
    <sodipodi:guide
       orientation="0,1"
       position="1480.9933,1480.7087"
       id="guide3979" />
  </sodipodi:namedview>
  <metadata
     id="metadata7">
    <rdf:RDF>
      <cc:Work
         rdf:about="">
        <dc:format>image/svg+xml</dc:format>
        <dc:type
           rdf:resource="http://purl.org/dc/dcmitype/StillImage" />
        <dc:title />
      </cc:Work>
    </rdf:RDF>
  </metadata>
  <g
     inkscape:label="Fundo"
     inkscape:groupmode="layer"
     id="layer1"
     transform="translate(100.3545,307.99236)"
     sodipodi:insensitive="true"
     style="display:inline">
    <rect
       style="fill:#000000;stroke:none"
       id="rect3004"
       width="1480.7031"
       height="1480.7087"
       x="-100.3545"
       y="-307.99207" />
    <rect
       y="-307.99207"
       x="-100.3545"
       height="1480.7087"
       width="1480.7031"
       id="rect3774"
       style="fill:url(#radialGradient3828);fill-opacity:1;stroke:none" />
  </g>
  <g
     inkscape:groupmode="layer"
     id="layer2"
     inkscape:label="sol e orbitas"
     transform="translate(100.3545,640.35454)"
     sodipodi:insensitive="true">
    <path
       sodipodi:type="arc"
       style="fill:#ffff00;fill-opacity:1;fill-rule:nonzero;stroke:none"
       id="sol"
       sodipodi:cx="607.10168"
       sodipodi:cy="215.93388"
       sodipodi:rx="89.90358"
       sodipodi:ry="89.90358"
       d="m 697.00526,215.93388 c 0,49.65238 -40.2512,89.90358 -89.90358,89.90358 -49.65237,0 -89.90358,-40.2512 -89.90358,-89.90358 0,-49.65237 40.25121,-89.90358 89.90358,-89.90358 49.65238,0 89.90358,40.25121 89.90358,89.90358 z"
       transform="matrix(0.56179777,0,0,0.56179777,298.93163,-21.31117)"
       inkscape:label="#path3787" />
    <path
       transform="matrix(2.235955,0,0,2.235955,-717.45205,-382.81845)"
       d="m 697.00526,215.93388 c 0,49.65238 -40.2512,89.90358 -89.90358,89.90358 -49.65237,0 -89.90358,-40.2512 -89.90358,-89.90358 0,-49.65237 40.25121,-89.90358 89.90358,-89.90358 49.65238,0 89.90358,40.25121 89.90358,89.90358 z"
       sodipodi:ry="89.90358"
       sodipodi:rx="89.90358"
       sodipodi:cy="215.93388"
       sodipodi:cx="607.10168"
       id="path3789"
       style="fill:none;stroke:#ffffff;stroke-width:0.04472362;stroke-opacity:1"
       sodipodi:type="arc" />
    <path
       sodipodi:type="arc"
       style="fill:none;stroke:#ffffff;stroke-width:0.05972531;stroke-opacity:1"
       id="path3791"
       sodipodi:cx="607.10168"
       sodipodi:cy="215.93388"
       sodipodi:rx="89.90358"
       sodipodi:ry="89.90358"
       d="m 697.00526,215.93388 c 0,49.65238 -40.2512,89.90358 -89.90358,89.90358 -49.65237,0 -89.90358,-40.2512 -89.90358,-89.90358 0,-49.65237 40.25121,-89.90358 89.90358,-89.90358 49.65238,0 89.90358,40.25121 89.90358,89.90358 z"
       transform="matrix(1.6743319,0,0,1.6743319,-376.48972,-261.54499)" />
    <path
       transform="matrix(2.9322365,0,0,2.9322365,-1140.1657,-533.16922)"
       d="m 697.00526,215.93388 c 0,49.65238 -40.2512,89.90358 -89.90358,89.90358 -49.65237,0 -89.90358,-40.2512 -89.90358,-89.90358 0,-49.65237 40.25121,-89.90358 89.90358,-89.90358 49.65238,0 89.90358,40.25121 89.90358,89.90358 z"
       sodipodi:ry="89.90358"
       sodipodi:rx="89.90358"
       sodipodi:cy="215.93388"
       sodipodi:cx="607.10168"
       id="path3793"
       style="fill:none;stroke:#ffffff;stroke-width:0.03410366;stroke-opacity:1"
       sodipodi:type="arc" />
    <path
       sodipodi:type="arc"
       style="fill:none;stroke:#ffffff;stroke-width:0.02625759;stroke-opacity:1"
       id="path3795"
       sodipodi:cx="607.10168"
       sodipodi:cy="215.93388"
       sodipodi:rx="89.90358"
       sodipodi:ry="89.90358"
       d="m 697.00526,215.93388 c 0,49.65238 -40.2512,89.90358 -89.90358,89.90358 -49.65237,0 -89.90358,-40.2512 -89.90358,-89.90358 0,-49.65237 40.25121,-89.90358 89.90358,-89.90358 49.65238,0 89.90358,40.25121 89.90358,89.90358 z"
       transform="matrix(3.808423,0,0,3.808423,-1672.1,-722.36757)" />
    <path
       transform="matrix(4.785708,0,0,4.785708,-2265.4114,-933.39651)"
       d="m 697.00526,215.93388 c 0,49.65238 -40.2512,89.90358 -89.90358,89.90358 -49.65237,0 -89.90358,-40.2512 -89.90358,-89.90358 0,-49.65237 40.25121,-89.90358 89.90358,-89.90358 49.65238,0 89.90358,40.25121 89.90358,89.90358 z"
       sodipodi:ry="89.90358"
       sodipodi:rx="89.90358"
       sodipodi:cy="215.93388"
       sodipodi:cx="607.10168"
       id="path3797"
       style="fill:none;stroke:#ffffff;stroke-width:0.02089555;stroke-opacity:1"
       sodipodi:type="arc" />
    <path
       sodipodi:type="arc"
       style="fill:none;stroke:#ffffff;stroke-width:0.01673242;stroke-opacity:1"
       id="path3799"
       sodipodi:cx="607.10168"
       sodipodi:cy="215.93388"
       sodipodi:rx="89.90358"
       sodipodi:ry="89.90358"
       d="m 697.00526,215.93388 c 0,49.65238 -40.2512,89.90358 -89.90358,89.90358 -49.65237,0 -89.90358,-40.2512 -89.90358,-89.90358 0,-49.65237 40.25121,-89.90358 89.90358,-89.90358 49.65238,0 89.90358,40.25121 89.90358,89.90358 z"
       transform="matrix(5.976423,0,0,5.976423,-2988.2965,-1190.5122)" />
    <path
       transform="matrix(7.0885059,0,0,7.0885059,-3663.4439,-1430.6486)"
       d="m 697.00526,215.93388 c 0,49.65238 -40.2512,89.90358 -89.90358,89.90358 -49.65237,0 -89.90358,-40.2512 -89.90358,-89.90358 0,-49.65237 40.25121,-89.90358 89.90358,-89.90358 49.65238,0 89.90358,40.25121 89.90358,89.90358 z"
       sodipodi:ry="89.90358"
       sodipodi:rx="89.90358"
       sodipodi:cy="215.93388"
       sodipodi:cx="607.10168"
       id="path3801"
       style="fill:none;stroke:#ffffff;stroke-width:0.01410735;stroke-opacity:1"
       sodipodi:type="arc" />
    <path
       sodipodi:type="arc"
       style="fill:none;stroke:#ffffff;stroke-width:0.01214434;stroke-opacity:1"
       id="path3803"
       sodipodi:cx="607.10168"
       sodipodi:cy="215.93388"
       sodipodi:rx="89.90358"
       sodipodi:ry="89.90358"
       d="m 697.00526,215.93388 c 0,49.65238 -40.2512,89.90358 -89.90358,89.90358 -49.65237,0 -89.90358,-40.2512 -89.90358,-89.90358 0,-49.65237 40.25121,-89.90358 89.90358,-89.90358 49.65238,0 89.90358,40.25121 89.90358,89.90358 z"
       transform="matrix(8.2342883,0,0,8.2342883,-4359.0503,-1678.0619)" />
    <path
       transform="matrix(1.1127673,0,0,1.1127673,-35.562902,-140.28416)"
       d="m 697.00526,215.93388 c 0,49.65238 -40.2512,89.90358 -89.90358,89.90358 -49.65237,0 -89.90358,-40.2512 -89.90358,-89.90358 0,-49.65237 40.25121,-89.90358 89.90358,-89.90358 49.65238,0 89.90358,40.25121 89.90358,89.90358 z"
       sodipodi:ry="89.90358"
       sodipodi:rx="89.90358"
       sodipodi:cy="215.93388"
       sodipodi:cx="607.10168"
       id="path3805"
       style="fill:none;stroke:#ffffff;stroke-width:0.08986605;stroke-opacity:1"
       sodipodi:type="arc" />
  </g>
  <g
     inkscape:groupmode="layer"
     id="layer3"
     inkscape:label="planetas"
     transform="translate(100.3545,640.35454)"
     sodipodi:insensitive="true">
    <path
       transform="matrix(-0.49919939,0.78847103,-0.78847103,-0.49919939,572.48731,44.34865)"
       d="m 125,-109.28571 c 0,4.14213 -3.35786,7.5 -7.5,7.5 -4.14214,0 -7.5,-3.35787 -7.5,-7.5 0,-4.14214 3.35786,-7.5 7.5,-7.5 4.14214,0 7.5,3.35786 7.5,7.5 z"
       sodipodi:ry="7.5"
       sodipodi:rx="7.5"
       sodipodi:cy="-109.28571"
       sodipodi:cx="117.5"
       id="mercurio"
       style="fill:#674c41;fill-opacity:1;stroke:none"
       sodipodi:type="arc"
       inkscape:transform-center-x="0.066000133"
       inkscape:transform-center-y="0.70225498"
       inkscape:label="#path3909" />
    <path
       sodipodi:type="arc"
       style="fill:#6a2213;fill-opacity:1;stroke:none"
       id="venus"
       sodipodi:cx="117.5"
       sodipodi:cy="-109.28571"
       sodipodi:rx="7.5"
       sodipodi:ry="7.5"
       d="m 125,-109.28571 c 0,4.14213 -3.35786,7.5 -7.5,7.5 -4.14214,0 -7.5,-3.35787 -7.5,-7.5 0,-4.14214 3.35786,-7.5 7.5,-7.5 4.14214,0 7.5,3.35786 7.5,7.5 z"
       transform="matrix(-0.86844287,1.3716805,-1.3716805,-0.86844287,643.65474,-15.765756)"
       inkscape:transform-center-x="-1.4817237"
       inkscape:transform-center-y="54.437546"
       inkscape:label="#path3911" />
    <path
       transform="matrix(-0.86844287,1.3716805,-1.3716805,-0.86844287,406.26889,-77.34364)"
       d="m 125,-109.28571 c 0,4.14213 -3.35786,7.5 -7.5,7.5 -4.14214,0 -7.5,-3.35787 -7.5,-7.5 0,-4.14214 3.35786,-7.5 7.5,-7.5 4.14214,0 7.5,3.35786 7.5,7.5 z"
       sodipodi:ry="7.5"
       sodipodi:rx="7.5"
       sodipodi:cy="-109.28571"
       sodipodi:cx="117.5"
       id="terra"
       style="fill:#0044aa;fill-opacity:1;stroke:none"
       sodipodi:type="arc"
       inkscape:transform-center-x="-0.47975373"
       inkscape:transform-center-y="107.0069"
       inkscape:label="#path3913" />
    <path
       sodipodi:type="arc"
       style="fill:#88552c;fill-opacity:1;stroke:none"
       id="marte"
       sodipodi:cx="117.5"
       sodipodi:cy="-109.28571"
       sodipodi:rx="7.5"
       sodipodi:ry="7.5"
       d="m 125,-109.28571 c 0,4.14213 -3.35786,7.5 -7.5,7.5 -4.14214,0 -7.5,-3.35787 -7.5,-7.5 0,-4.14214 3.35786,-7.5 7.5,-7.5 4.14214,0 7.5,3.35786 7.5,7.5 z"
       transform="matrix(-0.42360898,0.66907817,-0.66907817,-0.42360898,537.86147,227.83434)"
       inkscape:transform-center-x="-2.226537"
       inkscape:transform-center-y="151.71559"
       inkscape:label="#path3915" />
    <path
       transform="matrix(-1.7991315,2.8416764,-2.8416764,-1.7991315,788.33069,-185.85265)"
       d="m 125,-109.28571 c 0,4.14213 -3.35786,7.5 -7.5,7.5 -4.14214,0 -7.5,-3.35787 -7.5,-7.5 0,-4.14214 3.35786,-7.5 7.5,-7.5 4.14214,0 7.5,3.35786 7.5,7.5 z"
       sodipodi:ry="7.5"
       sodipodi:rx="7.5"
       sodipodi:cy="-109.28571"
       sodipodi:cx="117.5"
       id="jupiter"
       style="fill:#e1aa61;fill-opacity:1;stroke:none"
       sodipodi:type="arc"
       inkscape:transform-center-x="-0.6950431"
       inkscape:transform-center-y="200.2024"
       inkscape:label="#path3917" />
    <path
       transform="matrix(-0.76344867,1.2058452,-1.2058452,-0.76344867,830.25866,358.41867)"
       d="m 125,-109.28571 c 0,4.14213 -3.35786,7.5 -7.5,7.5 -4.14214,0 -7.5,-3.35787 -7.5,-7.5 0,-4.14214 3.35786,-7.5 7.5,-7.5 4.14214,0 7.5,3.35786 7.5,7.5 z"
       sodipodi:ry="7.5"
       sodipodi:rx="7.5"
       sodipodi:cy="-109.28571"
       sodipodi:cx="117.5"
       id="urano"
       style="fill:#4ab3e3;fill-opacity:1;stroke:none"
       sodipodi:type="arc"
       inkscape:transform-center-x="-2.4279847"
       inkscape:transform-center-y="325.94113"
       inkscape:label="#path3921" />
    <path
       sodipodi:type="arc"
       style="fill:#3e67f0;fill-opacity:1;stroke:none"
       id="netuno"
       sodipodi:cx="117.5"
       sodipodi:cy="-109.28571"
       sodipodi:rx="7.5"
       sodipodi:ry="7.5"
       d="m 125,-109.28571 c 0,4.14213 -3.35786,7.5 -7.5,7.5 -4.14214,0 -7.5,-3.35787 -7.5,-7.5 0,-4.14214 3.35786,-7.5 7.5,-7.5 4.14214,0 7.5,3.35786 7.5,7.5 z"
       transform="matrix(-0.68066259,1.0750869,-1.0750869,-0.68066259,-10.676375,74.69416)"
       inkscape:transform-center-x="-0.41269872"
       inkscape:transform-center-y="363.27735"
       inkscape:label="#path3923" />
    <path
       transform="matrix(-0.25081181,0.39615001,-0.39615001,-0.25081181,19.07517,450.70774)"
       d="m 125,-109.28571 c 0,4.14213 -3.35786,7.5 -7.5,7.5 -4.14214,0 -7.5,-3.35787 -7.5,-7.5 0,-4.14214 3.35786,-7.5 7.5,-7.5 4.14214,0 7.5,3.35786 7.5,7.5 z"
       sodipodi:ry="7.5"
       sodipodi:rx="7.5"
       sodipodi:cy="-109.28571"
       sodipodi:cx="117.5"
       id="plutao"
       style="fill:#cccccc;fill-opacity:1;stroke:none"
       sodipodi:type="arc"
       inkscape:transform-center-x="5.2241465"
       inkscape:transform-center-y="399.39711"
       inkscape:label="#path3925" />
    <g
       id="saturno"
       inkscape:label="#g3971">
      <path
         inkscape:label="#path3919"
         inkscape:transform-center-y="270.10947"
         inkscape:transform-center-x="-2.7643361"
         transform="matrix(-1.1416981,1.8032792,-1.8032792,-1.1416981,992.24957,-123.10618)"
         d="m 125,-109.28571 c 0,4.14213 -3.35786,7.5 -7.5,7.5 -4.14214,0 -7.5,-3.35787 -7.5,-7.5 0,-4.14214 3.35786,-7.5 7.5,-7.5 4.14214,0 7.5,3.35786 7.5,7.5 z"
         sodipodi:ry="7.5"
         sodipodi:rx="7.5"
         sodipodi:cy="-109.28571"
         sodipodi:cx="117.5"
         id="path3919"
         style="fill:#cbc490;fill-opacity:1;stroke:none"
         sodipodi:type="arc" />
      <path
         sodipodi:nodetypes="ccc"
         inkscape:connector-curvature="0"
         id="path3180"
         d="m 125,-109.28571 c -6.45735,18.809881 -24.14096,-5.54515 -7.5,-7.5 4.14214,0 7.5,3.35786 7.5,7.5 z"
         inkscape:transform-center-y="98.136184"
         inkscape:transform-center-x="-3.6583221"
         style="fill:none;stroke:url(#radialGradient3975);stroke-width:3.58515477;stroke-opacity:1"
         transform="matrix(-1.5109234,0.65516748,-2.3864599,-0.41480181,971.90022,91.018719)" />
    </g>
  </g>
  <g
     inkscape:groupmode="layer"
     id="layer4"
     inkscape:label="logo"
     sodipodi:insensitive="true"
     style="display:inline"
     transform="translate(100.3545,640.35454)">
    <text
       xml:space="preserve"
       style="font-size:40px;font-style:normal;font-weight:normal;text-align:start;line-height:125%;letter-spacing:0px;word-spacing:0px;text-anchor:start;fill:#000000;fill-opacity:1;stroke:none;font-family:Sans"
       x="542.36102"
       y="207.14001"
       id="text3928"
       sodipodi:linespacing="125%"><tspan
         sodipodi:role="line"
         id="tspan3930"
         x="542.36102"
         y="207.14001"
         style="font-size:32px;fill:#ffffff;fill-opacity:1;font-family:Orbitron;-inkscape-font-specification:Orbitron">RobertoPC</tspan></text>
    <text
       sodipodi:linespacing="125%"
       id="text3932"
       y="235.46002"
       x="549.12598"
       style="font-size:40px;font-style:normal;font-weight:normal;text-align:start;line-height:125%;letter-spacing:0px;word-spacing:0px;text-anchor:start;fill:#000000;fill-opacity:1;stroke:none;font-family:Sans"
       xml:space="preserve"><tspan
         style="font-size:16px;fill:#ffffff;fill-opacity:1;font-family:Orbitron;-inkscape-font-specification:Orbitron"
         y="235.46002"
         x="549.12598"
         id="tspan3934"
         sodipodi:role="line">Desenvolvedor Web</tspan></text>
    <rect
       y="215.14001"
       x="490"
       height="4"
       width="300"
       id="rect3027"
       style="fill:url(#radialGradient3803);fill-opacity:1;fill-rule:nonzero;stroke:none" />
  </g>
  <g
     inkscape:groupmode="layer"
     id="layer5"
     inkscape:label="Menu"
     sodipodi:insensitive="true"
     style="display:inline"
     transform="translate(100.3545,640.35454)">
    <text
       xml:space="preserve"
       style="font-size:40px;font-style:normal;font-weight:normal;text-align:start;line-height:125%;letter-spacing:0px;word-spacing:0px;text-anchor:start;fill:#000000;fill-opacity:1;stroke:none;font-family:Sans"
       x="371.66425"
       y="461.80701"
       id="text3806"
       sodipodi:linespacing="125%"><tspan
         sodipodi:role="line"
         id="tspan3808"
         x="371.66425"
         y="461.80701"
         style="font-size:32px;font-style:normal;font-variant:normal;font-weight:normal;font-stretch:normal;fill:#ffffff;fill-opacity:1;font-family:Orbitron;-inkscape-font-specification:Orbitron">Portifólio   -   Currículo   -   Blog</tspan></text>
  </g>
  <g
     inkscape:groupmode="layer"
     id="layer6"
     inkscape:label="Icones"
     sodipodi:insensitive="true"
     style="display:inline"
     transform="translate(100.3545,640.35454)">
    <path
       sodipodi:type="arc"
       style="fill:#ffffff;fill-opacity:1;fill-rule:nonzero;stroke:none"
       id="path3811"
       sodipodi:cx="432.34528"
       sodipodi:cy="649.28931"
       sodipodi:rx="18.182745"
       sodipodi:ry="18.182745"
       d="m 450.52802,649.28931 a 18.182745,18.182745 0 1 1 -36.36549,0 18.182745,18.182745 0 1 1 36.36549,0 z"
       transform="translate(86.941498,-71.472052)" />
    <path
       transform="translate(147.2981,-71.472052)"
       d="m 450.52802,649.28931 a 18.182745,18.182745 0 1 1 -36.36549,0 18.182745,18.182745 0 1 1 36.36549,0 z"
       sodipodi:ry="18.182745"
       sodipodi:rx="18.182745"
       sodipodi:cy="649.28931"
       sodipodi:cx="432.34528"
       id="path3813"
       style="fill:#ffffff;fill-opacity:1;fill-rule:nonzero;stroke:none"
       sodipodi:type="arc" />
    <path
       sodipodi:type="arc"
       style="fill:#ffffff;fill-opacity:1;fill-rule:nonzero;stroke:none"
       id="path3815"
       sodipodi:cx="432.34528"
       sodipodi:cy="649.28931"
       sodipodi:rx="18.182745"
       sodipodi:ry="18.182745"
       d="m 450.52802,649.28931 a 18.182745,18.182745 0 1 1 -36.36549,0 18.182745,18.182745 0 1 1 36.36549,0 z"
       transform="translate(207.65469,-71.472052)" />
    <path
       transform="translate(268.01132,-71.472052)"
       d="m 450.52802,649.28931 a 18.182745,18.182745 0 1 1 -36.36549,0 18.182745,18.182745 0 1 1 36.36549,0 z"
       sodipodi:ry="18.182745"
       sodipodi:rx="18.182745"
       sodipodi:cy="649.28931"
       sodipodi:cx="432.34528"
       id="path3817"
       style="fill:#ffffff;fill-opacity:1;fill-rule:nonzero;stroke:none"
       sodipodi:type="arc" />
    <path
       sodipodi:type="arc"
       style="fill:#ffffff;fill-opacity:1;fill-rule:nonzero;stroke:none"
       id="path3819"
       sodipodi:cx="432.34528"
       sodipodi:cy="649.28931"
       sodipodi:rx="18.182745"
       sodipodi:ry="18.182745"
       d="m 450.52802,649.28931 a 18.182745,18.182745 0 1 1 -36.36549,0 18.182745,18.182745 0 1 1 36.36549,0 z"
       transform="translate(328.36795,-71.472052)" />
  </g>
</svg>
