<?xml version="1.0" encoding="UTF-8" standalone="no"?>
<!-- created by RobertoPC www.robertopc.com.br CC-by-SA 3.0 -->
<svg
    id="solarsystem"
    xmlns="http://www.w3.org/2000/svg"
    xmlns:dc="http://purl.org/dc/elements/1.1/"
    xmlns:rdf="http://www.w3.org/1999/02/22-rdf-syntax-ns#"
    xmlns:cc="http://creativecommons.org/ns#"
    height="750"
    width="750"
    version="1.1">
  <metadata>
  <rdf:RDF>
   <cc:Work
      rdf:about="">
     <dc:format>image/svg+xml</dc:format>
     <dc:type
        rdf:resource="http://purl.org/dc/dcmitype/StillImage" />
     <dc:title>Solar System</dc:title>
     <dc:date>2015/06/29</dc:date>
     <dc:creator>
       <cc:Agent>
         <dc:title>RobertoPC www.robertopc.com.br</dc:title>
       </cc:Agent>
     </dc:creator>
     <dc:rights>
       <cc:Agent>
         <dc:title>CC-by-SA 3.0</dc:title>
       </cc:Agent>
     </dc:rights>
   </cc:Work>
  </rdf:RDF>
  </metadata>
  <style type="text/css">
			@keyframes translation {
				to {
					transform: rotate(360deg);
				}
			}
			.orbit {
				fill: none;
				stroke: #ffffff;
				opacity: 0.75;
			}
			.planet {
				-webkit-animation: translation 5s linear infinite;
				-moz-animation: translation 5s linear infinite;
				animation: translation 5s linear infinite;
				-webkit-transform-origin: 375px 375px;
				-moz-transform-origin: 375px 375px;
				transform-origin: 375px 375px;
			}
        .planet:hover {
  				-webkit-animation-play-state: paused;
  				-moz-animation-play-state: paused;
  				animation-play-state: paused;
  				stroke-width:1;
          stroke: #fff;
          cursor: help;
        }
			#sun {
				fill:none;
				fill-opacity:1;
				fill-rule:nonzero;
				stroke:#ffff00;
				stroke-width:3;
			}
			#mercury {
				-webkit-animation-duration: 10s;
				-moz-animation-duration: 10s;
				animation-duration: 10s;
			}
			#venus {
				-webkit-animation-duration: 20s;
				-moz-animation-duration: 20s;
				animation-duration: 20s;
			}
			#earth {
				-webkit-animation-duration: 30s;
				-moz-animation-duration: 30s;
				animation-duration: 30s;
			}
			#mars {
				-webkit-animation-duration: 40s;
				-moz-animation-duration: 40s;
				animation-duration: 40s;
			}
			#jupiter {
				-webkit-animation-duration: 50s;
				-moz-animation-duration: 50s;
				animation-duration: 50s;
			}
			#saturn {
				-webkit-animation-duration: 60s;
				-moz-animation-duration: 60s;
				animation-duration: 60s;
			}
			#uranus {
				-webkit-animation-duration: 70s;
				-moz-animation-duration: 70s;
				animation-duration: 70s;
			}
			#neptune {
				-webkit-animation-duration: 80s;
				-moz-animation-duration: 80s;
				animation-duration: 80s;
			}
			#pluto {
				-webkit-animation-duration: 90s;
				-moz-animation-duration: 90s;
				animation-duration: 90s;
			}
		</style>
  <g>
    <rect
       y="0"
       x="0"
       height="750"
       width="750"
       class="background"
       style="fill:#000033;fill-opacity:1;stroke:none;stroke-width:0.69085371" />
  </g>
  <g>
    <path
       class="orbit"
       style="display:inline;opacity:0.75;fill:none;stroke:#ffffff;stroke-width:0.1;stroke-opacity:1"
       d="M 639.40829,110.38339 A 373.34292,374.10026 44.974719 0 1 110.58411,639.67443 373.34292,374.10026 44.974719 1 1 639.40829,110.38339 Z" />
    <path
       id="pluto"
       title="Pluto: velocity = x; earth distancy = x; sun distancy = x; size = x; weight = x"
       class="planet"
       d="m 640.2005,637.6898 a 1.74946,1.74946 0 0 1 0.001,2.47411 1.74946,1.74946 0 0 1 -2.47411,0.001 1.74946,1.74946 0 0 1 -0.001,-2.47411 1.74946,1.74946 0 0 1 2.47411,-0.001 z"
       style="fill:#cccccc;fill-opacity:1;stroke:none;stroke-width:1" />
  </g>
  <g>
    <path
       class="orbit"
       style="display:inline;opacity:0.75;fill:none;stroke:#ffffff;stroke-width:0.1;stroke-opacity:1"
       d="M 673.31352,251.71765 A 322.14434,322.79782 67.543853 1 1 76.672005,498.31982 322.14434,322.79782 67.543853 0 1 673.31352,251.71765 Z" />
    <path
       id="neptune"
       title="Neptune: velocity = x; earth distancy = x; sun distancy = x; size = x; weight = x"
       class="planet"
       style="display:inline;fill:#3e67f0;fill-opacity:1"
       d="m 497.33262,677.61828 a 5,5 0 0 1 1.71631,-9.85155 5,5 0 1 1 -1.71631,9.85155 z" />
  </g>
  <g>
    <path
       class="orbit"
       style="display:inline;opacity:0.75;fill:none;stroke:#ffffff;stroke-width:0.1;stroke-opacity:1"
       d="m 647.15557,375.0173 a 272.15557,271.60461 0 0 1 -544.31114,0 272.15557,271.60461 0 1 1 544.31114,0 z" />
    <path
       id="uranus"
       title="Uranus: velocity = x; earth distancy = x; sun distancy = x; size = x; weight = x"
       class="planet"
       style="display:inline;fill:#4ab3e3;fill-opacity:1"
       d="m 372.15221,651.30443 a 5.5,5.5 0 1 1 5.88418,-9.29381 5.5,5.5 0 0 1 -5.88418,9.29381 z" />
  </g>
  <g>
    <path
       class="orbit"
       style="display:inline;opacity:0.75;fill:none;stroke:#ffffff;stroke-width:0.1;stroke-opacity:1"
       d="M 577.49109,459.67617 A 217.93253,217.49134 22.770296 1 1 175.59565,290.98 217.93253,217.49134 22.770296 1 1 577.49109,459.67617 Z" />
    <path
       id="saturn"
       title="Saturn: velocity = x; earth distancy = x; sun distancy = x; size = x; weight = x"
       class="planet"
       style="display:inline;fill:#cbc490;fill-opacity:1"
       d="m 295.61744,568.58673 c -1.64477,-0.73117 -3.54318,-0.87572 -5.28532,-0.40283 -1.74224,0.47307 -3.31608,1.56028 -4.38196,3.02713 -2.86456,-0.45411 -4.17053,0.26103 -1.40077,3.17696 -0.41629,2.09885 0.0479,4.35493 1.25656,6.10721 1.44692,2.0843 3.93783,3.39172 6.4724,3.39725 2.53459,0.006 5.04542,-1.291 6.52416,-3.36892 3.22281,0.0885 3.43368,-1.75431 1.38384,-3.33684 0.34504,-2.0361 -0.13138,-4.19628 -1.29835,-5.88738 -0.81867,-1.17976 -1.9622,-2.12829 -3.27048,-2.71254 z" />
  </g>
  <g>
    <path
       class="orbit"
       style="display:inline;opacity:0.75;fill:none;stroke:#ffffff;stroke-width:0.1;stroke-opacity:1"
       d="M 498.0591,497.2281 A 173.42875,173.07765 44.783002 0 1 251.86668,252.89348 173.42875,173.07765 44.783002 1 1 498.0591,497.2281 Z" />
    <path
       id="jupiter"
       title="Jupiter: velocity = x; earth distancy = x; sun distancy = x; size = x; weight = x"
       class="planet"
       style="display:inline;fill:#e1aa61;fill-opacity:1"
       d="m 240.68132,500.46168 a 12.5,12.5 0 0 1 24.37114,-5.57195 12.5,12.5 0 1 1 -24.37114,5.57195 z" />
  </g>
  <g>
    <path
       class="orbit"
       style="display:inline;opacity:0.75;fill:none;stroke:#ffffff;stroke-width:0.1;stroke-opacity:1"
       d="M 426.19691,498.36027 A 133.5288,133.25848 67.462769 1 1 323.83809,251.6977 133.5288,133.25848 67.462769 1 1 426.19691,498.36027 Z" />
    <path
       id="mars"
       title="Mars: velocity = x; earth distancy = x; sun distancy = x; size = x; weight = x"
       class="planet"
       style="display:inline;fill:#88552c;fill-opacity:1"
       d="m 248.90657,425.6096 a 3,3 0 0 1 5.9124,1.0214 3,3 0 1 1 -5.9124,-1.0214 z" />
  </g>
  <g>
    <path
       class="orbit"
       style="display:inline;opacity:0.75;fill:none;stroke:#ffffff;stroke-width:0.1;stroke-opacity:1"
       d="m 374.97382,476.85753 a 101.61525,101.82138 0 0 1 0,-203.64274 101.61525,101.82138 0 1 1 0,203.64274 z" />
    <path
       id="earth"
       title="Earth: velocity = x; earth distancy = x; sun distancy = x; size = x; weight = x"
       class="planet"
       style="display:inline;fill:#0044aa;fill-opacity:1"
       d="m 268.30384,371.66719 a 6,6 0 1 1 10.13878,6.4191 6,6 0 0 1 -10.13878,-6.4191 z" />
  </g>
  <g>
    <path
       class="orbit"
       style="display:inline;opacity:0.75;fill:none;stroke:#ffffff;stroke-width:0.1;stroke-opacity:1"
       d="m 451.24606,375.04486 a 76.246065,76.09171 0 0 1 -152.49212,0 76.246065,76.09171 0 1 1 152.49212,0 z" />
    <path
       id="venus"
       title="Venus: velocity = x; earth distancy = x; sun distancy = x; size = x; weight = x"
       class="planet"
       style="display:inline;fill:#6a2213;fill-opacity:1"
       d="m 301.66228,351.05254 a 6,6 0 1 1 6.4191,-10.13878 6,6 0 0 1 -6.4191,10.13878 z" />
  </g>
  <g>
    <g transform="matrix(-0.70710679,0.70710678,-0.70710678,-0.70710679,905.34232,375.02954)">
      <path
         class="orbit"
         d="m 425.67342,375.0173 a 50.673425,50.57084 0 0 1 -101.34685,0 50.673425,50.57084 0 1 1 101.34685,0 z"
         style="display:inline;opacity:0.75;fill:none;stroke:#ffffff;stroke-width:0.1;stroke-opacity:1" />
      <path
         id="mercury"
         title="Mercury: velocity = x; earth distancy = x; sun distancy = x; size = x; weight = x"
         class="planet"
         d="m 373.08292,428.57348 a 3.5,3.5 0 1 1 3.74445,-5.9143 3.5,3.5 0 0 1 -3.74445,5.9143 z"
         style="display:inline;fill:#674c41;fill-opacity:1" />
    </g>
  </g>
  <g>
    <path
       id="sun"
       title="Sun: size = x; weight = x"
       style="fill:#ffff00;fill-opacity:1;fill-rule:nonzero;stroke:#ffff00;stroke-width:1.51800001;stroke-miterlimit:4;stroke-dasharray:none"
       d="m 400.58326,375.0274 a 25.583262,25.53147 0 0 1 -51.16652,0 25.583262,25.53147 0 1 1 51.16652,0 z" />
  </g>
  <script type="text/javascript">
	<![CDATA[
    var planets = document.querySelectorAll('.planet');

    /* Stop all animations when mouseover */
    for(var i=0;i<9;i++) {

      planets[i].onmouseover = function() {
        for(var i=0;i<9;i++) {
          planets[i].style.animationPlayState = "paused";
        }
      }

      planets[i].onmouseout = function() {
        for(var i=0;i<9;i++) {
          planets[i].style.animationPlayState = "running";
        }
      }
    }

    console.log(planets);
  ]]>
  </script>
</svg>
