<?xml version="1.0" encoding="UTF-8" standalone="no"?>
<svg
   xmlns:dc="http://purl.org/dc/elements/1.1/"
   xmlns:cc="http://creativecommons.org/ns#"
   xmlns:rdf="http://www.w3.org/1999/02/22-rdf-syntax-ns#"
   xmlns:svg="http://www.w3.org/2000/svg"
   xmlns="http://www.w3.org/2000/svg"
   xmlns:sodipodi="http://sodipodi.sourceforge.net/DTD/sodipodi-0.dtd"
   xmlns:inkscape="http://www.inkscape.org/namespaces/inkscape"
   version="1.1"
   width="750"
   height="750.03461"
   id="solarsystem"
   inkscape:version="0.91 r13725"
   sodipodi:docname="solar-system-750.svg">
  <title
     id="title3373">Solar System</title>
  <metadata
     id="metadata37">
    <rdf:RDF>
      <cc:Work
         rdf:about="">
        <dc:format>image/svg+xml</dc:format>
        <dc:type
           rdf:resource="http://purl.org/dc/dcmitype/StillImage" />
        <dc:title>Solar System</dc:title>
        <dc:date>2015/06/29</dc:date>
        <dc:creator>
          <cc:Agent>
            <dc:title>robertopc.com.br</dc:title>
          </cc:Agent>
        </dc:creator>
        <dc:rights>
          <cc:Agent>
            <dc:title>CC-by-SA 3.0</dc:title>
          </cc:Agent>
        </dc:rights>
      </cc:Work>
    </rdf:RDF>
  </metadata>
  <defs
     id="defs35" />
  <sodipodi:namedview
     pagecolor="#ffffff"
     bordercolor="#666666"
     borderopacity="1"
     objecttolerance="10"
     gridtolerance="10"
     guidetolerance="10"
     inkscape:pageopacity="0"
     inkscape:pageshadow="2"
     inkscape:window-width="1920"
     inkscape:window-height="1056"
     id="namedview33"
     showgrid="false"
     fit-margin-top="0"
     fit-margin-left="0"
     fit-margin-right="0"
     fit-margin-bottom="0"
     inkscape:zoom="2"
     inkscape:cx="602.46923"
     inkscape:cy="155.96532"
     inkscape:window-x="0"
     inkscape:window-y="24"
     inkscape:window-maximized="1"
     inkscape:current-layer="layer12"
     showguides="true"
     inkscape:guide-bbox="true"
     inkscape:snap-grids="true"
     inkscape:snap-to-guides="true"
     inkscape:snap-others="false">
    <sodipodi:guide
       position="375,375"
       orientation="1,0"
       id="guide4277"
       inkscape:label=""
       inkscape:color="rgb(0,0,255)" />
    <sodipodi:guide
       position="375,375"
       orientation="0,1"
       id="guide4279"
       inkscape:label=""
       inkscape:color="rgb(0,0,255)" />
    <sodipodi:guide
       position="375,375"
       orientation="-0.70710678,0.70710678"
       id="guide3366"
       inkscape:label=""
       inkscape:color="rgb(0,0,255)" />
    <sodipodi:guide
       position="375,375"
       orientation="-0.70710678,-0.70710678"
       id="guide3368"
       inkscape:label=""
       inkscape:color="rgb(0,0,255)" />
    <sodipodi:guide
       position="375,375"
       orientation="-0.38268343,-0.92387953"
       id="guide3370"
       inkscape:label=""
       inkscape:color="rgb(0,0,255)" />
    <sodipodi:guide
       position="375,375"
       orientation="0.38268343,-0.92387953"
       id="guide3372"
       inkscape:label=""
       inkscape:color="rgb(0,0,255)" />
    <sodipodi:guide
       position="375,375"
       orientation="-0.92387953,0.38268343"
       id="guide3374"
       inkscape:label=""
       inkscape:color="rgb(0,0,255)" />
    <sodipodi:guide
       position="375,375"
       orientation="0.92387953,0.38268343"
       id="guide3376"
       inkscape:label=""
       inkscape:color="rgb(0,0,255)" />
  </sodipodi:namedview>
  <style
     type="text/css"
     id="style3">
			@keyframes translation {
				to {
					transform: rotate(360deg);
				}
			}
			.orbit {
				fill: none;
				stroke: #ffffff;
				opacity: 0.75;
			}
			.planet {
				-webkit-animation: translation 5s linear infinite;
				animation: translation 5s linear infinite;
				-webkit-transform-origin: 375px 375px;
				transform-origin: 375px 375px;
			}
			#sun {
				fill:none;
				fill-opacity:1;
				fill-rule:nonzero;
				stroke:#ffff00;
				stroke-width:3;
			}
			#mercury {
				-webkit-animation-duration: 10s;
				animation-duration: 10s;
			}
			#venus {
				-webkit-animation-duration: 20s;
				animation-duration: 20s;
			}
			#earth {
				-webkit-animation-duration: 30s;
				animation-duration: 30s;
			}
			#mars {
				-webkit-animation-duration: 40s;
				animation-duration: 40s;
			}
			#jupiter {
				-webkit-animation-duration: 50s;
				animation-duration: 50s;
			}
			#saturn {
				-webkit-animation-duration: 60s;
				animation-duration: 60s;
			}
			#uranus {
				-webkit-animation-duration: 70s;
				animation-duration: 70s;
			}
			#neptune {
				-webkit-animation-duration: 80s;
				animation-duration: 80s;
			}
			#pluto {
				-webkit-animation-duration: 90s;
				animation-duration: 90s;
			}
		</style>
  <g
     inkscape:groupmode="layer"
     id="layer1"
     inkscape:label="bg"
     style="display:inline"
     sodipodi:insensitive="true">
    <rect
       style="fill:#000033;fill-opacity:1;stroke:none;stroke-width:0.69085371"
       id="rect3386"
       width="750"
       height="750"
       x="0"
       y="0.034606934" />
  </g>
  <g
     inkscape:groupmode="layer"
     id="layer12"
     inkscape:label="pluto">
    <path
       d="M 639.40829,110.38339 A 373.34292,374.10026 44.974719 0 1 110.58411,639.67443 373.34292,374.10026 44.974719 1 1 639.40829,110.38339 Z"
       class="orbit"
       style="display:inline;opacity:0.75;fill:none;stroke:#ffffff;stroke-width:0.1;stroke-opacity:1"
       id="path22"
       inkscape:connector-curvature="0"
       inkscape:transform-center-y="-0.0037948152"
       inkscape:transform-center-x="0.0037986909" />
    <path
       style="fill:#cccccc;fill-opacity:1;stroke:none;stroke-width:1"
       inkscape:transform-center-x="-263.96399"
       inkscape:transform-center-y="263.89469"
       d="m 640.2005,637.6898 a 1.74946,1.74946 0 0 1 0.001,2.47411 1.74946,1.74946 0 0 1 -2.47411,0.001 1.74946,1.74946 0 0 1 -0.001,-2.47411 1.74946,1.74946 0 0 1 2.47411,-0.001 z"
       id="pluto"
       class="planet"
       inkscape:connector-curvature="0" />
  </g>
  <g
     inkscape:groupmode="layer"
     id="layer11"
     inkscape:label="neptune"
     style="display:inline"
     sodipodi:insensitive="true">
    <path
       d="M 673.31352,251.71765 A 322.14434,322.79782 67.543853 1 1 76.672005,498.31982 322.14434,322.79782 67.543853 0 1 673.31352,251.71765 Z"
       class="orbit"
       style="display:inline;opacity:0.75;fill:none;stroke:#ffffff;stroke-width:0.1;stroke-opacity:1"
       id="path20"
       inkscape:connector-curvature="0"
       inkscape:transform-center-y="0.0065242208"
       inkscape:transform-center-x="-0.0026963271" />
    <path
       d="m 497.33262,677.61828 a 5,5 0 0 1 1.71631,-9.85155 5,5 0 1 1 -1.71631,9.85155 z"
       id="neptune"
       class="planet"
       style="display:inline;fill:#3e67f0;fill-opacity:1"
       inkscape:connector-curvature="0"
       inkscape:transform-center-x="-123.20814"
       inkscape:transform-center-y="297.65928" />
  </g>
  <g
     inkscape:groupmode="layer"
     id="layer10"
     inkscape:label="uranus"
     style="display:inline"
     sodipodi:insensitive="true">
    <path
       d="m 647.15557,375.0173 a 272.15557,271.60461 0 0 1 -544.31114,0 272.15557,271.60461 0 1 1 544.31114,0 z"
       class="orbit"
       style="display:inline;opacity:0.75;fill:none;stroke:#ffffff;stroke-width:0.1;stroke-opacity:1"
       id="path18"
       inkscape:connector-curvature="0" />
    <path
       d="m 372.15221,651.30443 a 5.5,5.5 0 1 1 5.88418,-9.29381 5.5,5.5 0 0 1 -5.88418,9.29381 z"
       id="uranus"
       class="planet"
       style="display:inline;fill:#4ab3e3;fill-opacity:1"
       inkscape:connector-curvature="0" />
  </g>
  <g
     inkscape:groupmode="layer"
     id="layer9"
     inkscape:label="saturn"
     style="display:inline"
     sodipodi:insensitive="true">
    <path
       d="M 577.49109,459.67617 A 217.93253,217.49134 22.770296 1 1 175.59565,290.98 217.93253,217.49134 22.770296 1 1 577.49109,459.67617 Z"
       class="orbit"
       style="display:inline;opacity:0.75;fill:none;stroke:#ffffff;stroke-width:0.1;stroke-opacity:1"
       id="path16"
       inkscape:connector-curvature="0" />
    <path
       d="m 295.61744,568.58673 c -1.64477,-0.73117 -3.54318,-0.87572 -5.28532,-0.40283 -1.74224,0.47307 -3.31608,1.56028 -4.38196,3.02713 -2.86456,-0.45411 -4.17053,0.26103 -1.40077,3.17696 -0.41629,2.09885 0.0479,4.35493 1.25656,6.10721 1.44692,2.0843 3.93783,3.39172 6.4724,3.39725 2.53459,0.006 5.04542,-1.291 6.52416,-3.36892 3.22281,0.0885 3.43368,-1.75431 1.38384,-3.33684 0.34504,-2.0361 -0.13138,-4.19628 -1.29835,-5.88738 -0.81867,-1.17976 -1.9622,-2.12829 -3.27048,-2.71254 z"
       id="saturn"
       class="planet"
       style="display:inline;fill:#cbc490;fill-opacity:1"
       inkscape:connector-curvature="0" />
  </g>
  <g
     inkscape:groupmode="layer"
     id="layer8"
     inkscape:label="jupiter"
     style="display:inline"
     sodipodi:insensitive="true">
    <path
       d="M 498.0591,497.2281 A 173.42875,173.07765 44.783002 0 1 251.86668,252.89348 173.42875,173.07765 44.783002 1 1 498.0591,497.2281 Z"
       class="orbit"
       style="display:inline;opacity:0.75;fill:none;stroke:#ffffff;stroke-width:0.1;stroke-opacity:1"
       id="path14"
       inkscape:connector-curvature="0"
       inkscape:transform-center-y="6.1050903e-05"
       inkscape:transform-center-x="6.34328e-05" />
    <path
       d="m 240.68132,500.46168 a 12.5,12.5 0 0 1 24.37114,-5.57195 12.5,12.5 0 1 1 -24.37114,5.57195 z"
       id="jupiter"
       class="planet"
       style="display:inline;fill:#e1aa61;fill-opacity:1"
       inkscape:connector-curvature="0"
       inkscape:transform-center-x="122.12975"
       inkscape:transform-center-y="122.66699" />
  </g>
  <g
     inkscape:groupmode="layer"
     id="layer7"
     inkscape:label="mars"
     sodipodi:insensitive="true">
    <path
       d="M 426.19691,498.36027 A 133.5288,133.25848 67.462769 1 1 323.83809,251.6977 133.5288,133.25848 67.462769 1 1 426.19691,498.36027 Z"
       class="orbit"
       style="display:inline;opacity:0.75;fill:none;stroke:#ffffff;stroke-width:0.1;stroke-opacity:1"
       id="path12"
       inkscape:connector-curvature="0"
       inkscape:transform-center-y="-0.0072593591"
       inkscape:transform-center-x="-0.017496799" />
    <path
       d="m 248.90657,425.6096 a 3,3 0 0 1 5.9124,1.0214 3,3 0 1 1 -5.9124,-1.0214 z"
       id="mars"
       class="planet"
       style="display:inline;fill:#88552c;fill-opacity:1"
       inkscape:connector-curvature="0"
       inkscape:transform-center-x="123.13863"
       inkscape:transform-center-y="51.092125" />
  </g>
  <g
     inkscape:groupmode="layer"
     id="layer6"
     inkscape:label="earth"
     sodipodi:insensitive="true">
    <path
       d="m 374.97382,476.85753 a 101.61525,101.82138 0 0 1 0,-203.64274 101.61525,101.82138 0 1 1 0,203.64274 z"
       class="orbit"
       style="display:inline;opacity:0.75;fill:none;stroke:#ffffff;stroke-width:0.1;stroke-opacity:1"
       id="path8"
       inkscape:connector-curvature="0"
       inkscape:transform-center-x="-0.018855438" />
    <path
       d="m 268.30384,371.66719 a 6,6 0 1 1 10.13878,6.4191 6,6 0 0 1 -10.13878,-6.4191 z"
       id="earth"
       class="planet"
       style="display:inline;fill:#0044aa;fill-opacity:1"
       inkscape:connector-curvature="0"
       inkscape:transform-center-x="101.62217"
       inkscape:transform-center-y="-0.1666831" />
  </g>
  <g
     inkscape:groupmode="layer"
     id="layer5"
     inkscape:label="venus"
     sodipodi:insensitive="true">
    <path
       d="m 451.24606,375.04486 a 76.246065,76.09171 0 0 1 -152.49212,0 76.246065,76.09171 0 1 1 152.49212,0 z"
       class="orbit"
       style="display:inline;opacity:0.75;fill:none;stroke:#ffffff;stroke-width:0.1;stroke-opacity:1"
       id="path10"
       inkscape:connector-curvature="0" />
    <path
       d="m 301.66228,351.05254 a 6,6 0 1 1 6.4191,-10.13878 6,6 0 0 1 -6.4191,10.13878 z"
       id="venus"
       class="planet"
       style="display:inline;fill:#6a2213;fill-opacity:1"
       inkscape:connector-curvature="0" />
  </g>
  <g
     inkscape:groupmode="layer"
     id="layer4"
     inkscape:label="mercury"
     style="display:inline"
     sodipodi:insensitive="true">
    <g
       id="g3378"
       transform="matrix(-0.70710679,0.70710678,-0.70710678,-0.70710679,905.34232,375.02954)">
      <path
         inkscape:connector-curvature="0"
         id="path6"
         style="display:inline;opacity:0.75;fill:none;stroke:#ffffff;stroke-width:0.1;stroke-opacity:1"
         class="orbit"
         d="m 425.67342,375.0173 a 50.673425,50.57084 0 0 1 -101.34685,0 50.673425,50.57084 0 1 1 101.34685,0 z" />
      <path
         inkscape:connector-curvature="0"
         style="display:inline;fill:#674c41;fill-opacity:1"
         class="planet"
         id="mercury"
         d="m 373.08292,428.57348 a 3.5,3.5 0 1 1 3.74445,-5.9143 3.5,3.5 0 0 1 -3.74445,5.9143 z" />
    </g>
  </g>
  <g
     inkscape:groupmode="layer"
     id="layer2"
     inkscape:label="sun"
     style="display:inline"
     sodipodi:insensitive="true">
    <path
       d="m 400.58326,375.0274 a 25.583262,25.53147 0 0 1 -51.16652,0 25.583262,25.53147 0 1 1 51.16652,0 z"
       id="sun"
       style="fill:#ffff00;fill-opacity:1;fill-rule:nonzero;stroke:#ffff00;stroke-width:1.51800001;stroke-miterlimit:4;stroke-dasharray:none"
       inkscape:connector-curvature="0" />
  </g>
</svg>
