<?xml version="1.0" encoding="UTF-8" standalone="no"?>
<!-- Created with Inkscape (http://www.inkscape.org/) -->

<svg
   xmlns:dc="http://purl.org/dc/elements/1.1/"
   xmlns:cc="http://creativecommons.org/ns#"
   xmlns:rdf="http://www.w3.org/1999/02/22-rdf-syntax-ns#"
   xmlns:svg="http://www.w3.org/2000/svg"
   xmlns="http://www.w3.org/2000/svg"
   version="1.1"
   width="64"
   height="64"
   viewBox="0 0 64 64">
  <path
     d="m 32.001455,1.0302086 c -17.102368,0 -30.9712457,14.2156264 -30.9712457,31.7534614 0,14.029077 8.8739533,25.931664 21.1797997,30.131058 1.547546,0.293721 2.116625,-0.688653 2.116625,-1.527142 0,-0.757121 -0.02904,-3.258699 -0.04258,-5.912099 -8.616512,1.921086 -10.43408,-3.746907 -10.43408,-3.746907 -1.40818,-3.670503 -3.43867,-4.645929 -3.43867,-4.645929 -2.8095847,-1.970698 0.211954,-1.930016 0.211954,-1.930016 3.109609,0.22426 4.747163,3.272592 4.747163,3.272592 2.763129,4.85431 7.245108,3.450212 9.013317,2.639507 0.277766,-2.052068 1.08009,-3.453189 1.966614,-4.246034 -6.879277,-0.802767 -14.110836,-3.525626 -14.110836,-15.693156 0,-3.46708 1.209775,-6.299093 3.190906,-8.522828 -0.321317,-0.79979 -1.38205,-4.029713 0.299056,-8.403753 0,0 2.601503,-0.853373 8.518762,3.255723 2.46988,-0.703537 5.119773,-1.056795 7.752249,-1.068703 2.631506,0.01192 5.283335,0.365166 7.758054,1.068703 5.911452,-4.108105 8.508116,-3.255723 8.508116,-3.255723 1.685945,4.37404 0.62618,7.603963 0.304864,8.403753 1.985001,2.223735 3.187035,5.05674 3.187035,8.522828 0,12.196306 -7.245111,14.881458 -14.141804,15.667357 1.111058,0.985349 2.100172,2.91735 2.100172,5.880344 0,4.24901 -0.03582,7.668461 -0.03582,8.714341 0,0.845436 0.557465,1.835747 2.12727,1.523174 12.299068,-4.203365 21.161407,-16.101982 21.161407,-30.12709 0,-17.537835 -13.865974,-31.7534614 -30.970279,-31.7534614 z"
     style="fill:none;stroke:#000000;stroke-width:2.06041837" />
</svg>
