<?xml version="1.0" encoding="utf-8"?>
<!-- Generated by IcoMoon.io -->
<!DOCTYPE svg PUBLIC "-//W3C//DTD SVG 1.1//EN" "http://www.w3.org/Graphics/SVG/1.1/DTD/svg11.dtd">
<svg version="1.1" xmlns="http://www.w3.org/2000/svg" xmlns:xlink="http://www.w3.org/1999/xlink" width="64" height="64" viewBox="0 0 64 64">
<path d="m 22,52 -8,0 0,-28 8,0 z M 18,20 c -2.209,0 -4,-1.791 -4,-4 0,-2.209 1.791,-4 4,-4 2.209,0 4,1.791 4,4 0,2.209 -1.791,4 -4,4 z m 32,32 -8,0 0,-16 c 0,-2.209 -1.791,-4 -4,-4 -2.209,0 -4,1.791 -4,4 l 0,16 -8,0 0,-28 8,0 0,4.967 C 35.65,26.7 38.172,24 41,24 c 4.971,0 9,4.477 9,10 z M 32,0.969697 C 14.862545,0.969697 0.96969699,14.862545 0.96969699,32 0.96969699,49.137455 14.862545,63.030303 32,63.030303 49.137455,63.030303 63.030303,49.137455 63.030303,32 63.030303,14.862545 49.137455,0.969697 32,0.969697 Z" fill="none" stroke="white" stroke-width="2"></path></svg>
