<?xml version="1.0" encoding="UTF-8" standalone="no"?>
<!-- Created with Inkscape (http://www.inkscape.org/) -->

<svg
   xmlns:dc="http://purl.org/dc/elements/1.1/"
   xmlns:cc="http://creativecommons.org/ns#"
   xmlns:rdf="http://www.w3.org/1999/02/22-rdf-syntax-ns#"
   xmlns:svg="http://www.w3.org/2000/svg"
   xmlns="http://www.w3.org/2000/svg"
   version="1.1"
   width="64"
   height="64"
   viewBox="0 0 64 64">
  <path
     d="M 50,0 H 14 c -2.2,0 -4,1.8 -4,4 v 56 c 0,2.2 1.8,4 4,4 h 36 c 2.2,0 4,-1.8 4,-4 V 4 C 54,1.8 52.2,0 50,0 z M 32,61.111 c -1.718,0 -3.111,-1.393 -3.111,-3.111 0,-1.718 1.393,-3.111 3.111,-3.111 1.718,0 3.111,1.393 3.111,3.111 0,1.718 -1.393,3.111 -3.111,3.111 z M 50,52 H 14 V 8 h 36 v 44 z"
     id="path4"
     style="fill:#000000" />
</svg>
