<?xml version="1.0" encoding="utf-8"?>
<!-- Generated by IcoMoon.io -->
<!DOCTYPE svg PUBLIC "-//W3C//DTD SVG 1.1//EN" "http://www.w3.org/Graphics/SVG/1.1/DTD/svg11.dtd">
<svg version="1.1" xmlns="http://www.w3.org/2000/svg" xmlns:xlink="http://www.w3.org/1999/xlink" width="64" height="64" viewBox="0 0 64 64">
<path d="m 60.078545,35.996606 c 0.170667,-1.260606 0.268607,-2.542546 0.268607,-3.846788 0,-15.654788 -12.760243,-28.3481211 -28.497455,-28.3481211 -1.564121,0 -3.097212,0.128 -4.589576,0.3733334 -2.675394,-1.7435152 -5.859879,-2.7597576 -9.285818,-2.7597576 -9.3963636,0 -17.00460602,7.6130905 -17.00460602,17.0065453 0,3.418182 1.00557572,6.59297 2.73842422,9.259636 -0.233697,1.456485 -0.3529697,2.947879 -0.3529697,4.467394 0,15.657697 12.7534545,28.349091 28.4955155,28.349091 1.776485,0 3.506424,-0.172606 5.187878,-0.477091 2.612364,1.620364 5.689213,2.563879 8.987152,2.563879 9.394424,0 17.004606,-7.61503 17.004606,-17.007515 0,-3.55103 -1.086061,-6.851879 -2.950788,-9.580606 z m -25.56509,17.046303 c -9.055031,0.471273 -13.292607,-1.532121 -17.174303,-5.174303 -4.335516,-4.068849 -2.59394,-8.709818 0.938666,-8.945455 3.529697,-0.235636 5.649455,4.00194 7.533576,5.180121 1.882182,1.174304 9.041454,3.849697 12.823273,-0.474181 4.118303,-4.706909 -2.738425,-7.141819 -7.764364,-7.878788 -7.175758,-1.062788 -16.236606,-4.944485 -15.531636,-12.594424 0.704969,-7.645091 6.49503,-11.565576 12.587636,-12.118303 7.767273,-0.70497 12.823273,1.176242 16.822303,4.588606 4.624485,3.942787 2.121697,8.35103 -0.824242,8.705939 -2.934303,0.35297 -6.230303,-6.485333 -12.702061,-6.588121 -6.669576,-0.104728 -11.177697,6.941091 -2.944,8.943515 8.238545,2.000485 17.060849,2.822788 20.237576,10.353454 3.179636,7.531637 -4.939637,15.530667 -14.002424,16.00194 z" fill="none" stroke="white" stroke-width="2"></path>
</svg>
