<?xml version="1.0" encoding="utf-8"?>
<!-- Generated by IcoMoon.io -->
<!DOCTYPE svg PUBLIC "-//W3C//DTD SVG 1.1//EN" "http://www.w3.org/Graphics/SVG/1.1/DTD/svg11.dtd">
<svg version="1.1" xmlns="http://www.w3.org/2000/svg" xmlns:xlink="http://www.w3.org/1999/xlink" width="64" height="64" viewBox="0 0 64 64">
<path d="M 32,0.969697 C 14.862545,0.969697 0.96969698,14.862545 0.96969698,32 0.96969698,49.137455 14.862545,63.030303 32,63.030303 49.137455,63.030303 63.030303,49.137455 63.030303,32 63.030303,14.862545 49.137455,0.969697 32,0.969697 Z m 15.42303,23.120485 c 0.01552,0.341333 0.02327,0.684606 0.02327,1.029818 0,10.515394 -8.003879,22.641455 -22.641455,22.641455 -4.493575,0 -8.676848,-1.317819 -12.198787,-3.575273 0.622545,0.0737 1.255757,0.111515 1.898666,0.111515 3.728485,0 7.159273,-1.272242 9.883152,-3.406545 -3.482182,-0.064 -6.421334,-2.365091 -7.433697,-5.526304 0.485818,0.09309 0.984242,0.143516 1.497212,0.143516 0.725333,0 1.429333,-0.09794 2.096485,-0.279273 -3.640243,-0.731152 -6.383515,-3.947636 -6.383515,-7.803152 0,-0.03394 0,-0.06691 9.69e-4,-0.09988 1.072485,0.596363 2.300122,0.954181 3.604364,0.994909 -2.135273,-1.427394 -3.540364,-3.862303 -3.540364,-6.624 0,-1.458425 0.392728,-2.825697 1.077334,-4.00097 3.925333,4.814545 9.788121,7.982545 16.402424,8.314182 -0.135758,-0.582788 -0.205576,-1.189818 -0.205576,-1.813334 0,-4.394666 3.563637,-7.957333 7.957333,-7.957333 2.288485,0 4.356849,0.966788 5.808485,2.512485 1.812364,-0.356848 3.516122,-1.019152 5.053091,-1.930667 -0.594424,1.85794 -1.856,3.418182 -3.498666,4.402425 1.609697,-0.192 3.143757,-0.619637 4.570181,-1.252849 -1.066666,1.595152 -2.415515,2.997333 -3.970909,4.119273 z" fill="none" stroke="#000000" stroke-width="2"></path>
</svg>
